<?xml version="1.0" encoding="UTF-8"?>
<svg version="1.1" xmlns="http://www.w3.org/2000/svg" width="1280" height="1280">
<path d="M0 0 C422.4 0 844.8 0 1280 0 C1280 422.4 1280 844.8 1280 1280 C857.6 1280 435.2 1280 0 1280 C0 857.6 0 435.2 0 0 Z " fill="#E4E7E9" transform="translate(0,0)"/>
<path d="M0 0 C1.20167816 -0.00692368 2.40335632 -0.01384735 3.64144897 -0.02098083 C7.55785566 -0.03833843 11.47418851 -0.04491111 15.390625 -0.046875 C16.0583065 -0.04761143 16.72598801 -0.04834785 17.41390228 -0.0491066 C42.25182021 -0.07143808 66.90374315 0.89075218 91.640625 3.203125 C92.92388672 3.32059082 94.20714844 3.43805664 95.52929688 3.55908203 C127.20185665 6.56613684 158.854024 12.49433016 189.59814453 20.66259766 C191.06384831 21.05048532 192.5311749 21.43226049 193.99951172 21.81005859 C220.45357588 28.62036768 246.52043615 37.45766178 271.640625 48.203125 C273.66101951 49.03752169 275.68185994 49.87083939 277.703125 50.703125 C327.9914823 71.73750868 375.48627703 101.26386111 415.640625 138.203125 C417.32754589 139.70377624 419.01505462 141.20376693 420.703125 142.703125 C427.58079596 148.9016529 434.05072075 155.37472888 440.06640625 162.4140625 C441.50803681 164.05244165 443.00316959 165.56934419 444.578125 167.078125 C446.640625 169.203125 446.640625 169.203125 446.640625 171.203125 C447.300625 171.203125 447.960625 171.203125 448.640625 171.203125 C450.3900619 173.22894863 452.02377786 175.26233188 453.640625 177.390625 C454.12756836 178.02266846 454.61451172 178.65471191 455.11621094 179.3059082 C456.12999271 180.62267622 457.14135214 181.94131244 458.15039062 183.26171875 C459.53500349 185.06552633 460.93519596 186.85548561 462.34375 188.640625 C467.53831283 195.24857381 472.26193974 202.0224829 476.640625 209.203125 C477.26453125 210.19699219 477.8884375 211.19085937 478.53125 212.21484375 C491.81562253 233.47506986 502.92301428 255.30179585 510.640625 279.203125 C511.10642158 280.60688677 511.57255193 282.01053785 512.0390625 283.4140625 C516.8431401 298.07078217 519.85830018 312.68098585 521.890625 327.953125 C521.97966095 328.62063782 522.0686969 329.28815063 522.16043091 329.97589111 C522.92369879 335.76141713 523.640625 341.36036155 523.640625 347.203125 C191.990625 347.203125 -139.659375 347.203125 -481.359375 347.203125 C-481.359375 337.06801919 -481.359375 337.06801919 -480.58984375 332.12890625 C-480.42500488 331.05656738 -480.26016602 329.98422852 -480.09033203 328.87939453 C-479.91099121 327.76935059 -479.73165039 326.65930664 -479.546875 325.515625 C-479.36237793 324.35659668 -479.17788086 323.19756836 -478.98779297 322.00341797 C-474.00726936 291.1985982 -464.70365897 257.96237462 -447.75 231.4140625 C-446.18285615 228.92247987 -444.80465564 226.36379704 -443.421875 223.765625 C-432.28108379 203.20684535 -418.07173348 184.07075449 -402.05078125 167.078125 C-399.98254389 164.86880323 -397.99551217 162.64057422 -396.046875 160.328125 C-388.49002057 151.59865523 -380.06378931 143.25149422 -371.2421875 135.8046875 C-368.91642586 133.82634254 -366.67519956 131.76350434 -364.421875 129.703125 C-359.89812873 125.62625336 -355.20706722 121.88335067 -350.359375 118.203125 C-349.41707031 117.46578125 -348.47476563 116.7284375 -347.50390625 115.96875 C-314.29207346 90.05939473 -276.47300301 66.32026694 -237.0078125 51.2265625 C-233.26601585 49.78061748 -229.56556973 48.23763944 -225.859375 46.703125 C-223.02823471 45.5310475 -220.1946153 44.36524749 -217.359375 43.203125 C-216.2161377 42.72903198 -216.2161377 42.72903198 -215.04980469 42.24536133 C-208.33018617 39.49784111 -201.5029645 37.16133175 -194.609375 34.890625 C-193.43141357 34.50108643 -192.25345215 34.11154785 -191.03979492 33.71020508 C-187.48118071 32.53647408 -183.92059415 31.36892554 -180.359375 30.203125 C-179.32441895 29.8628125 -178.28946289 29.5225 -177.22314453 29.171875 C-174.37496646 28.23770649 -171.52411422 27.31231041 -168.671875 26.390625 C-167.86202148 26.12531982 -167.05216797 25.86001465 -166.21777344 25.58666992 C-139.23331892 16.95565261 -110.37260246 11.14316163 -82.359375 7.203125 C-81.15958008 7.03329102 -79.95978516 6.86345703 -78.72363281 6.68847656 C-60.34829969 4.13596232 -42.04345547 2.40961074 -23.51367188 1.43676758 C-21.24939518 1.26904987 -18.99122625 1.00943016 -16.74316406 0.69116211 C-11.17750568 -0.02717216 -5.60405158 0.0217219 0 0 Z " fill="#B0B4B7" transform="translate(620.359375,813.796875)"/>
<path d="M0 0 C0.94955566 0.17724609 1.89911133 0.35449219 2.87744141 0.53710938 C19.3971959 3.6482501 35.34307104 7.0677438 51.00927734 13.22802734 C52.85711979 13.94459318 54.71914388 14.62429107 56.58203125 15.30078125 C71.60597576 20.91612545 85.81364184 28.90487468 99 38 C99.59006836 38.4012207 100.18013672 38.80244141 100.78808594 39.21582031 C109.51931748 45.18549832 117.58069491 51.71428783 125.50048828 58.71386719 C126.9253816 59.93599972 128.4129305 61.08394399 129.90234375 62.2265625 C130.59457031 62.81179688 131.28679687 63.39703125 132 64 C132 64.66 132 65.32 132 66 C132.8353125 66.309375 132.8353125 66.309375 133.6875 66.625 C136.22812201 68.13564012 137.76507497 69.93858175 139.55859375 72.26953125 C141.55643993 74.6680295 143.7818035 76.80470523 146 79 C165.49044365 98.83905321 180.40160951 122.80892564 192 148 C192.3604541 148.77601563 192.7209082 149.55203125 193.09228516 150.3515625 C210.03379824 187.19412014 217.50189148 226.44128864 217.4375 266.8125 C217.43754028 267.86596619 217.43758057 268.91943237 217.43762207 270.00482178 C217.39873506 287.5056802 216.47278968 304.90201416 213.1875 322.125 C213.01718262 323.03475586 212.84686523 323.94451172 212.67138672 324.88183594 C210.95359852 333.74135561 208.67396023 342.38454623 206 351 C205.77054688 351.7420166 205.54109375 352.4840332 205.3046875 353.24853516 C201.80661364 364.42267082 197.69069394 375.2741298 193 386 C192.70399902 386.68384766 192.40799805 387.36769531 192.10302734 388.07226562 C184.46786457 405.54527996 174.51448533 421.81978773 163 437 C162.56333008 437.57943359 162.12666016 438.15886719 161.67675781 438.75585938 C155.23707065 447.25865725 148.40462828 455.31804482 141 463 C140.41669922 463.60521484 139.83339844 464.21042969 139.23242188 464.83398438 C128.82872652 475.56313423 117.94197698 484.92664816 105.875 493.75 C105.13467529 494.29350098 104.39435059 494.83700195 103.6315918 495.39697266 C90.31112062 505 90.31112062 505 86 505 C86 505.66 86 506.32 86 507 C84.98421875 507.50789063 83.9684375 508.01578125 82.921875 508.5390625 C82.261875 508.86922363 81.601875 509.19938477 80.921875 509.53955078 C79.45885225 510.27073324 77.99529926 511.00085558 76.53125 511.72998047 C73.28368083 513.34879718 70.0448157 514.9765987 66.828125 516.65625 C50.79729006 524.98165599 33.72724291 529.86979981 16.125 533.625 C15.16916016 533.83133057 14.21332031 534.03766113 13.22851562 534.25024414 C-2.39184677 537.48000846 -17.59514101 538.40860612 -33.5 538.375 C-34.47110718 538.37445618 -35.44221436 538.37391235 -36.44274902 538.37335205 C-51.3320853 538.33505801 -65.47298775 537.46370787 -80 534 C-82.0089845 533.55930243 -84.01810375 533.11921875 -86.02734375 532.6796875 C-117.99501439 525.42017766 -149.123366 511.25501036 -175 491 C-175.78761719 490.3915625 -176.57523437 489.783125 -177.38671875 489.15625 C-193.10880149 476.8013766 -207.61222137 463.74717622 -220 448 C-220.65355469 447.20207031 -221.30710937 446.40414063 -221.98046875 445.58203125 C-237.67993981 426.372898 -249.89776086 405.63107413 -260 383 C-260.37253906 382.16774902 -260.74507813 381.33549805 -261.12890625 380.47802734 C-270.2287809 359.81442821 -275.77269178 338.21372618 -279.4375 316 C-279.5632843 315.23800293 -279.6890686 314.47600586 -279.81866455 313.69091797 C-282.31791734 298.33415354 -283.23769597 283.2903491 -283.25 267.75 C-283.25100708 266.86427307 -283.25201416 265.97854614 -283.25305176 265.065979 C-283.24213347 250.82821488 -282.40505448 237.05194545 -280 223 C-279.71747405 221.16946731 -279.43623539 219.3387355 -279.15625 217.5078125 C-275.87960275 197.04552171 -269.72529234 177.20430591 -262 158 C-261.70544922 157.26652344 -261.41089844 156.53304687 -261.10742188 155.77734375 C-254.06874862 138.53791509 -244.75880917 122.18890706 -234 107 C-233.34515625 106.071875 -232.6903125 105.14375 -232.015625 104.1875 C-225.28394923 94.79446404 -218.12876281 85.96518861 -210.21191406 77.55322266 C-207.99680662 75.19537036 -205.88245234 72.85209663 -203.8671875 70.31640625 C-202.1526745 68.18940581 -200.45783371 66.50489819 -198.375 64.75 C-194.26782943 61.25698578 -190.32552531 57.60764169 -186.39453125 53.91796875 C-183.98988034 51.99189437 -181.90494109 50.97519337 -179 50 C-179 49.34 -179 48.68 -179 48 C-177.55737305 46.75415039 -177.55737305 46.75415039 -175.51171875 45.34765625 C-174.37174438 44.56165039 -174.37174438 44.56165039 -173.20874023 43.75976562 C-172.37673096 43.19966797 -171.54472168 42.63957031 -170.6875 42.0625 C-169.83679932 41.48564453 -168.98609863 40.90878906 -168.10961914 40.31445312 C-119.81179412 7.96498628 -58.33724839 -11.20617235 0 0 Z " fill="#B0B4B7" transform="translate(676,261)"/>
</svg>
