<svg width="177" height="30" viewBox="0 0 177 30" fill="none" xmlns="http://www.w3.org/2000/svg">
<path d="M18.0791 0.281043L18.0791 10.0621L4.86288 21.03L4.86288 11.1541L18.0791 0.281043Z" fill="url(#paint0_linear_1_771)"/>
<path d="M17.9607 0.218299L18.0197 10.0489L31.3972 21.1522L31.3376 11.2262L17.9607 0.218299Z" fill="url(#paint1_linear_1_771)"/>
<rect x="15.0439" y="18.0387" width="6.17245" height="10.2558" fill="url(#paint2_linear_1_771)"/>
<path d="M16.8481 28.2945H21.2163L20.5991 28.5794L16.8481 29.9089V28.2945Z" fill="url(#paint3_linear_1_771)"/>
<path d="M41.3711 6.21801H45.9324L50.4938 22.3705H49.5278L54.0624 6.21801H58.2212L62.8094 22.3705H61.8435L66.3511 6.21801H70.7247L64.3656 25H59.9921L55.5649 9.59877L56.5577 9.6256L52.05 25H47.7033L41.3711 6.21801ZM72.7035 10.5915H76.8355V25H72.7035V10.5915ZM74.7695 4.23248C75.4313 4.23248 75.968 4.44714 76.3794 4.87644C76.8087 5.30574 77.0233 5.84237 77.0233 6.48632C77.0233 7.13028 76.8087 7.66691 76.3794 8.09621C75.968 8.52551 75.4313 8.74016 74.7695 8.74016C74.1434 8.74016 73.6157 8.52551 73.1864 8.09621C72.7571 7.66691 72.5425 7.13028 72.5425 6.48632C72.5425 5.84237 72.7571 5.30574 73.1864 4.87644C73.6157 4.44714 74.1434 4.23248 74.7695 4.23248ZM80.0756 10.5915L92.4181 10.6184V13.1405L84.9858 21.8876H92.6864V25.0268L79.8341 25V22.4778L87.2664 13.7308H80.0756V10.5915ZM100.249 20.0899C100.249 20.7338 100.374 21.1899 100.624 21.4583C100.875 21.7087 101.215 21.8249 101.644 21.8071C101.912 21.8071 102.208 21.7623 102.53 21.6729C102.852 21.5835 103.2 21.4493 103.576 21.2704L104.435 24.1682C103.898 24.4902 103.308 24.7406 102.664 24.9195C102.02 25.0984 101.358 25.1878 100.678 25.1878C99.8196 25.1878 99.0414 25.0268 98.3438 24.7049C97.6641 24.3829 97.1275 23.891 96.7339 23.2291C96.3404 22.5673 96.1437 21.7445 96.1437 20.7606V7.2376H100.249V20.0899ZM94.1313 11.2087H104.166V13.9723H94.1313V11.2087ZM116.237 16.6286C116.219 15.9668 116.076 15.4033 115.808 14.9382C115.557 14.4553 115.191 14.0796 114.708 13.8113C114.225 13.543 113.67 13.4088 113.044 13.4088C112.346 13.4088 111.738 13.5877 111.22 13.9455C110.701 14.3032 110.298 14.7951 110.012 15.4212C109.726 16.0473 109.583 16.7717 109.583 17.5945C109.583 18.5247 109.744 19.3207 110.066 19.9825C110.388 20.6444 110.844 21.1542 111.434 21.5119C112.024 21.8697 112.704 22.0485 113.473 22.0485C114.869 22.0485 116.085 21.5298 117.122 20.4923L119.296 22.6388C118.58 23.4438 117.695 24.0609 116.639 24.4902C115.602 24.9195 114.43 25.1342 113.125 25.1342C111.586 25.1342 110.254 24.8301 109.127 24.2219C108 23.6137 107.123 22.764 106.497 21.6729C105.889 20.5639 105.585 19.2849 105.585 17.836C105.585 16.3513 105.898 15.0634 106.524 13.9723C107.15 12.8633 108.018 12.0047 109.127 11.3965C110.254 10.7883 111.55 10.4753 113.017 10.4574C114.717 10.4574 116.103 10.8151 117.176 11.5306C118.267 12.2282 119.054 13.221 119.537 14.5089C120.038 15.7789 120.226 17.2904 120.101 19.0434H108.993V16.6286H116.237ZM132.461 15.3675C132.086 14.8846 131.621 14.5089 131.066 14.2406C130.512 13.9723 129.877 13.8381 129.161 13.8381C128.499 13.8381 127.909 14.0081 127.39 14.3479C126.872 14.6699 126.46 15.135 126.156 15.7432C125.87 16.3335 125.727 17.0311 125.727 17.836C125.727 18.6231 125.87 19.3207 126.156 19.9289C126.46 20.537 126.872 21.0111 127.39 21.3509C127.909 21.6729 128.499 21.8339 129.161 21.8339C129.895 21.8339 130.547 21.6997 131.12 21.4314C131.692 21.1452 132.157 20.7249 132.515 20.1703L135.359 22.0485C134.751 23.0324 133.892 23.7926 132.783 24.3292C131.692 24.8658 130.422 25.1342 128.973 25.1342C127.507 25.1342 126.219 24.8301 125.11 24.2219C124.001 23.6137 123.133 22.764 122.507 21.6729C121.899 20.5639 121.595 19.2849 121.595 17.836C121.595 16.3692 121.899 15.0813 122.507 13.9723C123.133 12.8633 124.001 12.0047 125.11 11.3965C126.237 10.7704 127.524 10.4574 128.973 10.4574C130.369 10.4574 131.603 10.7167 132.676 11.2355C133.749 11.7363 134.608 12.4518 135.252 13.382L132.461 15.3675ZM146.668 6.21801C148.045 6.21801 149.235 6.40583 150.237 6.78147C151.238 7.15711 152.007 7.70268 152.544 8.41819C153.099 9.1158 153.376 9.94758 153.376 10.9135C153.376 11.9331 153.081 12.8185 152.49 13.5698C151.918 14.3032 151.131 14.7951 150.129 15.0455C151.346 15.2781 152.303 15.8237 153 16.6823C153.698 17.523 154.047 18.5605 154.047 19.7947C154.047 20.868 153.752 21.7981 153.161 22.5852C152.589 23.3543 151.775 23.9536 150.72 24.3829C149.664 24.7943 148.412 25 146.963 25H138.028V6.21801H146.668ZM146.453 13.8113C147.24 13.8113 147.867 13.6235 148.332 13.2478C148.797 12.8543 149.029 12.3177 149.029 11.638C149.029 10.9761 148.797 10.4663 148.332 10.1086C147.867 9.73293 147.24 9.55405 146.453 9.57194H142.268V13.8113H146.453ZM146.453 21.6461C147.455 21.6461 148.242 21.4404 148.815 21.029C149.387 20.6175 149.673 20.0362 149.673 19.2849C149.673 18.5873 149.387 18.0328 148.815 17.6214C148.242 17.2099 147.455 17.0132 146.453 17.0311H142.268V21.6461H146.453ZM165.072 6.21801C166.539 6.21801 167.871 6.45055 169.07 6.91563C170.286 7.36282 171.333 8.00677 172.209 8.84749C173.086 9.67032 173.765 10.6541 174.248 11.7989C174.731 12.9438 174.973 14.2138 174.973 15.609C174.973 16.9864 174.731 18.2474 174.248 19.3922C173.765 20.537 173.077 21.5298 172.182 22.3705C171.288 23.2112 170.224 23.8641 168.989 24.3292C167.773 24.7764 166.423 25 164.938 25H157.13V6.21801H165.072ZM165.179 21.5387C165.984 21.5387 166.718 21.3956 167.38 21.1094C168.041 20.8232 168.614 20.4208 169.097 19.902C169.598 19.3654 169.982 18.7393 170.251 18.0238C170.519 17.3083 170.653 16.5123 170.653 15.6358C170.653 14.7593 170.51 13.9633 170.224 13.2478C169.938 12.5144 169.544 11.8794 169.043 11.3428C168.542 10.7883 167.943 10.3679 167.245 10.0817C166.566 9.79553 165.814 9.65243 164.992 9.65243H161.369V21.5387H165.179Z" fill="#6C0443"/>
<defs>
<linearGradient id="paint0_linear_1_771" x1="18.1212" y1="5.11511" x2="4.52514" y2="15.2566" gradientUnits="userSpaceOnUse">
<stop stop-color="#F2139A"/>
<stop offset="1" stop-color="#6C0443"/>
</linearGradient>
<linearGradient id="paint1_linear_1_771" x1="17.9475" y1="5.0766" x2="31.7168" y2="15.3324" gradientUnits="userSpaceOnUse">
<stop stop-color="#F2139A"/>
<stop offset="1" stop-color="#6C0443"/>
</linearGradient>
<linearGradient id="paint2_linear_1_771" x1="18.184" y1="19.3829" x2="17.9534" y2="26.8025" gradientUnits="userSpaceOnUse">
<stop stop-color="#F2139A"/>
<stop offset="1" stop-color="#6C0443"/>
</linearGradient>
<linearGradient id="paint3_linear_1_771" x1="19.0703" y1="28.5061" x2="19.0623" y2="29.6751" gradientUnits="userSpaceOnUse">
<stop stop-color="#F2139A"/>
<stop offset="1" stop-color="#6C0443"/>
</linearGradient>
</defs>
</svg>
