<svg width="17" height="17" viewBox="0 0 17 17" fill="none" xmlns="http://www.w3.org/2000/svg">
<path d="M3.6 0C2.64522 0 1.72955 0.379285 1.05442 1.05442C0.379285 1.72955 0 2.64522 0 3.6V13.2C0 14.1548 0.379285 15.0705 1.05442 15.7456C1.72955 16.4207 2.64522 16.8 3.6 16.8H13.2C14.1548 16.8 15.0705 16.4207 15.7456 15.7456C16.4207 15.0705 16.8 14.1548 16.8 13.2V3.6C16.8 2.64522 16.4207 1.72955 15.7456 1.05442C15.0705 0.379285 14.1548 0 13.2 0H3.6ZM13.0248 5.8248L7.0248 11.8248C6.96907 11.8807 6.90285 11.925 6.82996 11.9553C6.75707 11.9855 6.67892 12.0011 6.6 12.0011C6.52108 12.0011 6.44293 11.9855 6.37004 11.9553C6.29715 11.925 6.23094 11.8807 6.1752 11.8248L3.7752 9.4248C3.66254 9.31214 3.59924 9.15933 3.59924 9C3.59924 8.84067 3.66254 8.68786 3.7752 8.5752C3.88786 8.46254 4.04067 8.39924 4.2 8.39924C4.35933 8.39924 4.51214 8.46254 4.6248 8.5752L6.6 10.5516L12.1752 4.9752C12.231 4.91941 12.2972 4.87516 12.3701 4.84497C12.443 4.81478 12.5211 4.79924 12.6 4.79924C12.6789 4.79924 12.757 4.81478 12.8299 4.84497C12.9028 4.87516 12.969 4.91941 13.0248 4.9752C13.0806 5.03099 13.1248 5.09721 13.155 5.1701C13.1852 5.24299 13.2008 5.32111 13.2008 5.4C13.2008 5.47889 13.1852 5.55701 13.155 5.6299C13.1248 5.70279 13.0806 5.76901 13.0248 5.8248Z" fill="#6C0443"/>
</svg>
