<svg width="40" height="40" viewBox="0 0 40 40" fill="none" xmlns="http://www.w3.org/2000/svg">
<g clip-path="url(#clip0_2_4900)">
<path d="M38.1651 12.1571L33.8824 12.5493V4.31396H38.1651C38.7453 4.31396 39.2157 4.78432 39.2157 5.36455V11.1066C39.2157 11.6867 38.7453 12.1571 38.1651 12.1571Z" fill="url(#paint0_linear_2_4900)"/>
<path d="M38.1651 20.0004L33.8824 20.3925V12.1572H38.1651C38.7453 12.1572 39.2157 12.6276 39.2157 13.2078V18.9499C39.2157 19.53 38.7453 20.0004 38.1651 20.0004Z" fill="url(#paint1_linear_2_4900)"/>
<path d="M38.1651 27.8431L33.8824 28.2353V20H38.1651C38.7453 20 39.2157 20.4704 39.2157 21.0506V26.7926C39.2157 27.3728 38.7453 27.8431 38.1651 27.8431Z" fill="url(#paint2_linear_2_4900)"/>
<path d="M38.1651 35.6864H33.8824V27.8433H38.1651C38.7453 27.8433 39.2157 28.3136 39.2157 28.8938V34.6359C39.2157 35.216 38.7453 35.6864 38.1651 35.6864Z" fill="url(#paint3_linear_2_4900)"/>
<path d="M34.8496 4.31396H33.8824V12.1571H38.1651C38.7453 12.1571 39.2157 11.6867 39.2157 11.1065V8.67993L34.8496 4.31396Z" fill="url(#paint4_linear_2_4900)"/>
<path d="M34.8496 12.1572H33.8824V20.0004H38.1651C38.7453 20.0004 39.2157 19.53 39.2157 18.9498V16.5232L34.8496 12.1572Z" fill="url(#paint5_linear_2_4900)"/>
<path d="M34.8496 27.8433H33.8824V35.6864H38.1651C38.7453 35.6864 39.2157 35.216 39.2157 34.6358V32.2092L34.8496 27.8433Z" fill="url(#paint6_linear_2_4900)"/>
<path d="M33.8824 32.1572V35.6866H38.1651C38.7453 35.6866 39.2157 35.2163 39.2157 34.6361V32.1572H33.8824Z" fill="url(#paint7_linear_2_4900)"/>
<path d="M34.8496 20H33.8824V27.8431H38.1651C38.7453 27.8431 39.2157 27.3728 39.2157 26.7926V24.366L34.8496 20Z" fill="url(#paint8_linear_2_4900)"/>
<path d="M33.8824 24.314V27.8434H38.1651C38.7453 27.8434 39.2157 27.373 39.2157 26.7928V24.314H33.8824Z" fill="url(#paint9_linear_2_4900)"/>
<path d="M33.8824 16.4707V20.0001H38.1651C38.7453 20.0001 39.2157 19.5298 39.2157 18.9495V16.4707H33.8824Z" fill="url(#paint10_linear_2_4900)"/>
<path d="M33.8824 8.62793V12.1573H38.1651C38.7453 12.1573 39.2157 11.687 39.2157 11.1068V8.62793H33.8824Z" fill="url(#paint11_linear_2_4900)"/>
<path d="M0.784317 37.3044V2.69561C0.784317 1.2069 1.99122 0 3.47992 0H32.1917C33.6805 0 34.8873 1.2069 34.8873 2.69561V37.3044C34.8873 38.7932 33.6804 40 32.1917 40H3.47992C1.99122 40 0.784317 38.7931 0.784317 37.3044Z" fill="url(#paint12_linear_2_4900)"/>
<path d="M3.92314 0H7.06197V40H3.92314V0Z" fill="url(#paint13_linear_2_4900)"/>
<path d="M0.784317 25.2402V37.3044C0.784317 38.7932 1.99122 40.0001 3.47992 40.0001H32.1917C33.6805 40.0001 34.8873 38.7932 34.8873 37.3045V25.2402H0.784317Z" fill="url(#paint14_linear_2_4900)"/>
<path d="M20.8159 26.9074C26.5334 26.9074 31.1683 22.2725 31.1683 16.555C31.1683 10.8376 26.5334 6.20264 20.8159 6.20264C15.0985 6.20264 10.4635 10.8376 10.4635 16.555C10.4635 22.2725 15.0985 26.9074 20.8159 26.9074Z" fill="url(#paint15_linear_2_4900)"/>
<path d="M34.8873 21.3348L23.9332 10.3807C23.2024 9.51913 22.1126 8.97168 20.8943 8.97168C18.694 8.97168 16.9104 10.7554 16.9104 12.9556C16.9104 14.1738 17.4577 15.2637 18.3193 15.9944L34.8872 32.5624L34.8873 21.3348Z" fill="url(#paint16_linear_2_4900)"/>
<path d="M29.4694 33.7975H12.1624C11.514 33.7975 10.9885 33.2719 10.9885 32.6236V30.7603C10.9885 30.112 11.514 29.5864 12.1624 29.5864H29.4694C30.1177 29.5864 30.6433 30.112 30.6433 30.7603V32.6236C30.6433 33.272 30.1177 33.7975 29.4694 33.7975Z" fill="url(#paint17_linear_2_4900)"/>
<path d="M26.2842 20.2813C24.8889 18.9311 22.9893 18.0996 20.8944 18.0996C18.7995 18.0996 16.8998 18.9311 15.5046 20.2813C15.0537 20.7175 14.8067 21.3233 14.8067 21.9507C14.8067 22.7164 15.174 23.3962 15.7418 23.8242L31.9177 40.0001H32.1917C33.6805 40.0001 34.8873 38.7932 34.8873 37.3045V28.8845L26.2842 20.2813Z" fill="url(#paint18_linear_2_4900)"/>
<path d="M20.8159 16.8609C23.0162 16.8609 24.7998 15.0772 24.7998 12.877C24.7998 10.6767 23.0162 8.89307 20.8159 8.89307C18.6157 8.89307 16.832 10.6767 16.832 12.877C16.832 15.0772 18.6157 16.8609 20.8159 16.8609Z" fill="url(#paint19_linear_2_4900)"/>
<path d="M20.8159 16.8609C23.0162 16.8609 24.7998 15.0772 24.7998 12.877C24.7998 10.6767 23.0162 8.89307 20.8159 8.89307C18.6157 8.89307 16.832 10.6767 16.832 12.877C16.832 15.0772 18.6157 16.8609 20.8159 16.8609Z" fill="url(#paint20_linear_2_4900)"/>
<path d="M17.0729 24.2167H24.5589C25.8538 24.2167 26.9035 23.167 26.9035 21.8721C26.9035 21.2447 26.6566 20.6389 26.2057 20.2026C24.8105 18.8526 22.9108 18.021 20.8159 18.021C18.721 18.021 16.8213 18.8525 15.4261 20.2026C14.9753 20.6389 14.7283 21.2447 14.7283 21.8721C14.7283 23.167 15.778 24.2167 17.0729 24.2167Z" fill="url(#paint21_linear_2_4900)"/>
<path d="M14.7283 21.872C14.7283 23.1669 15.778 24.2166 17.0729 24.2166H24.559C25.8539 24.2166 26.9036 23.1669 26.9036 21.872C26.9036 21.3334 26.7211 20.8111 26.3844 20.3979H15.2475C14.9107 20.8111 14.7283 21.3335 14.7283 21.872Z" fill="url(#paint22_linear_2_4900)"/>
</g>
<defs>
<linearGradient id="paint0_linear_2_4900" x1="32.7938" y1="4.98408" x2="39.4111" y2="11.6013" gradientUnits="userSpaceOnUse">
<stop stop-color="#76CCF8"/>
<stop offset="0.833" stop-color="#518EF8"/>
<stop offset="1" stop-color="#4981F8"/>
</linearGradient>
<linearGradient id="paint1_linear_2_4900" x1="32.7938" y1="12.8273" x2="39.4111" y2="19.4446" gradientUnits="userSpaceOnUse">
<stop stop-color="#BCE097"/>
<stop offset="1" stop-color="#7DC03A"/>
</linearGradient>
<linearGradient id="paint2_linear_2_4900" x1="32.7938" y1="20.6701" x2="39.4111" y2="27.2874" gradientUnits="userSpaceOnUse">
<stop stop-color="#F7E07D"/>
<stop offset="1" stop-color="#E69642"/>
</linearGradient>
<linearGradient id="paint3_linear_2_4900" x1="32.8918" y1="28.4153" x2="39.5091" y2="35.0326" gradientUnits="userSpaceOnUse">
<stop stop-color="#DC4955"/>
<stop offset="1" stop-color="#C4237C"/>
</linearGradient>
<linearGradient id="paint4_linear_2_4900" x1="38.549" y1="8.23553" x2="34.3513" y2="8.23553" gradientUnits="userSpaceOnUse">
<stop stop-color="#4071F7" stop-opacity="0"/>
<stop offset="1" stop-color="#30569F"/>
</linearGradient>
<linearGradient id="paint5_linear_2_4900" x1="38.549" y1="16.0788" x2="34.3513" y2="16.0788" gradientUnits="userSpaceOnUse">
<stop stop-color="#8CC951" stop-opacity="0"/>
<stop offset="1" stop-color="#3E6E66"/>
</linearGradient>
<linearGradient id="paint6_linear_2_4900" x1="38.549" y1="31.7648" x2="34.3513" y2="31.7648" gradientUnits="userSpaceOnUse">
<stop stop-color="#8A1958" stop-opacity="0"/>
<stop offset="1" stop-color="#8A1958"/>
</linearGradient>
<linearGradient id="paint7_linear_2_4900" x1="36.549" y1="33.6213" x2="36.549" y2="35.399" gradientUnits="userSpaceOnUse">
<stop stop-color="#8A1958" stop-opacity="0"/>
<stop offset="1" stop-color="#8A1958"/>
</linearGradient>
<linearGradient id="paint8_linear_2_4900" x1="38.549" y1="23.9216" x2="34.3513" y2="23.9216" gradientUnits="userSpaceOnUse">
<stop stop-color="#D52C1C" stop-opacity="0"/>
<stop offset="0.28" stop-color="#D12C1E" stop-opacity="0.28"/>
<stop offset="0.5735" stop-color="#C42C23" stop-opacity="0.574"/>
<stop offset="0.8721" stop-color="#AF2B2C" stop-opacity="0.872"/>
<stop offset="1" stop-color="#A42B31"/>
</linearGradient>
<linearGradient id="paint9_linear_2_4900" x1="36.549" y1="25.9871" x2="36.549" y2="28.238" gradientUnits="userSpaceOnUse">
<stop stop-color="#D52C1C" stop-opacity="0"/>
<stop offset="0.28" stop-color="#D12C1E" stop-opacity="0.28"/>
<stop offset="0.5735" stop-color="#C42C23" stop-opacity="0.574"/>
<stop offset="0.8721" stop-color="#AF2B2C" stop-opacity="0.872"/>
<stop offset="1" stop-color="#A42B31"/>
</linearGradient>
<linearGradient id="paint10_linear_2_4900" x1="36.549" y1="17.9348" x2="36.549" y2="19.7125" gradientUnits="userSpaceOnUse">
<stop stop-color="#8CC951" stop-opacity="0"/>
<stop offset="1" stop-color="#3E6E66"/>
</linearGradient>
<linearGradient id="paint11_linear_2_4900" x1="36.549" y1="10.092" x2="36.549" y2="11.8697" gradientUnits="userSpaceOnUse">
<stop stop-color="#4071F7" stop-opacity="0"/>
<stop offset="1" stop-color="#30569F"/>
</linearGradient>
<linearGradient id="paint12_linear_2_4900" x1="-1.08211" y1="1.08212" x2="36.2922" y2="38.4563" gradientUnits="userSpaceOnUse">
<stop stop-color="#5A5A5A"/>
<stop offset="1" stop-color="#464646"/>
</linearGradient>
<linearGradient id="paint13_linear_2_4900" x1="7.05883" y1="20" x2="3.60698" y2="20" gradientUnits="userSpaceOnUse">
<stop stop-color="#5A5A5A"/>
<stop offset="1" stop-color="#464646"/>
</linearGradient>
<linearGradient id="paint14_linear_2_4900" x1="17.8358" y1="32.3138" x2="17.8358" y2="39.5363" gradientUnits="userSpaceOnUse">
<stop stop-color="#464646" stop-opacity="0"/>
<stop offset="1" stop-color="#202020"/>
</linearGradient>
<linearGradient id="paint15_linear_2_4900" x1="27.0598" y1="22.799" x2="11.5272" y2="7.26632" gradientUnits="userSpaceOnUse">
<stop stop-color="#5A5A5A"/>
<stop offset="1" stop-color="#464646"/>
</linearGradient>
<linearGradient id="paint16_linear_2_4900" x1="29.5532" y1="21.128" x2="18.7296" y2="18.3567" gradientUnits="userSpaceOnUse">
<stop stop-color="#464646" stop-opacity="0"/>
<stop offset="1" stop-color="#202020"/>
</linearGradient>
<linearGradient id="paint17_linear_2_4900" x1="20.8159" y1="30.8236" x2="20.8159" y2="33.8864" gradientUnits="userSpaceOnUse">
<stop stop-color="#EEF4FF"/>
<stop offset="1" stop-color="#CFE7FD"/>
</linearGradient>
<linearGradient id="paint18_linear_2_4900" x1="27.4145" y1="31.1975" x2="21.14" y2="17.7073" gradientUnits="userSpaceOnUse">
<stop stop-color="#464646" stop-opacity="0"/>
<stop offset="1" stop-color="#202020"/>
</linearGradient>
<linearGradient id="paint19_linear_2_4900" x1="18.6026" y1="10.6637" x2="22.0275" y2="14.0886" gradientUnits="userSpaceOnUse">
<stop stop-color="#EEF4FF"/>
<stop offset="1" stop-color="#CFE7FD"/>
</linearGradient>
<linearGradient id="paint20_linear_2_4900" x1="20.8159" y1="12.2935" x2="20.8159" y2="16.0585" gradientUnits="userSpaceOnUse">
<stop stop-color="#8AAADC" stop-opacity="0"/>
<stop offset="1" stop-color="#8AAADC"/>
</linearGradient>
<linearGradient id="paint21_linear_2_4900" x1="20.8159" y1="19.8751" x2="20.8159" y2="23.6297" gradientUnits="userSpaceOnUse">
<stop stop-color="#EEF4FF"/>
<stop offset="1" stop-color="#CFE7FD"/>
</linearGradient>
<linearGradient id="paint22_linear_2_4900" x1="20.8159" y1="21.5407" x2="20.8159" y2="23.8548" gradientUnits="userSpaceOnUse">
<stop stop-color="#8AAADC" stop-opacity="0"/>
<stop offset="1" stop-color="#8AAADC"/>
</linearGradient>
<clipPath id="clip0_2_4900">
<rect width="40" height="40" fill="white"/>
</clipPath>
</defs>
</svg>
