<svg width="40" height="40" viewBox="0 0 40 40" fill="none" xmlns="http://www.w3.org/2000/svg">
<g clip-path="url(#clip0_2_4869)">
<path d="M4.57957 1.81738H33.6608C35.6685 1.81738 37.296 3.44485 37.296 5.45262V29.0809C37.296 31.0887 35.6685 32.7162 33.6608 32.7162H4.57957C2.5718 32.7162 0.944336 31.0887 0.944336 29.0809V5.45262C0.944336 3.44485 2.5718 1.81738 4.57957 1.81738Z" fill="#FFA300"/>
<path d="M33.6608 1.81738H5.48839C4.98633 1.8169 4.5791 2.2234 4.57861 2.72522C4.57813 3.22704 4.98439 3.63452 5.48645 3.635C5.48694 3.635 5.48767 3.635 5.48839 3.635H33.6608C34.6642 3.63597 35.4772 4.44922 35.4784 5.45262V6.36119C35.4784 6.86325 35.8851 7.27 36.3872 7.27C36.889 7.27 37.296 6.86325 37.296 6.36119V5.45238C37.296 3.44485 35.6685 1.81738 33.6608 1.81738Z" fill="#FFD700"/>
<path d="M4.57958 3.63525C5.58347 3.63525 6.3972 4.44899 6.3972 5.45263V7.27025C6.3972 8.27414 5.58347 9.08787 4.57958 9.08787C3.57594 9.08787 2.76196 8.27414 2.76196 7.27025V5.45263C2.76196 4.44899 3.5757 3.63525 4.57958 3.63525Z" fill="#F98B00"/>
<path d="M33.6608 5.45264C34.6646 5.45264 35.4784 6.26637 35.4784 7.27026V30.8988C35.4784 31.9025 34.6646 32.7162 33.6608 32.7162C32.6571 32.7162 31.8434 31.9025 31.8434 30.8988V7.27026C31.8431 6.26661 32.6569 5.45264 33.6608 5.45264Z" fill="#F98B00"/>
<path d="M9.12335 1.81738C9.62541 1.81738 10.0322 2.22413 10.0322 2.72619V8.17881C10.0322 8.68087 9.62541 9.08762 9.12335 9.08762C8.62153 9.08762 8.21478 8.68087 8.21478 8.17881V2.72619C8.21478 2.22413 8.62153 1.81738 9.12335 1.81738Z" fill="#FFA300"/>
<path d="M12.7586 1.81738C13.2604 1.81738 13.6674 2.22413 13.6674 2.72619V8.17881C13.6674 8.68087 13.2604 9.08762 12.7586 9.08762C12.2568 9.08762 11.8498 8.68087 11.8498 8.17881V2.72619C11.8498 2.22413 12.2568 1.81738 12.7586 1.81738Z" fill="#FFA300"/>
<path d="M6.3972 3.63525H28.2079C30.2157 3.63525 31.8431 5.26272 31.8431 7.27025V30.8988C31.8431 32.9063 30.2157 34.5338 28.2079 34.5338H6.3972C4.38943 34.5338 2.76196 32.9063 2.76196 30.8988V7.27025C2.76196 5.26272 4.38943 3.63525 6.3972 3.63525Z" fill="#B8C2FF"/>
<path d="M8.21483 5.45264H30.0255C32.0333 5.45264 33.6608 7.0801 33.6608 9.08787V32.7162C33.6608 34.724 32.0333 36.3514 30.0255 36.3514H8.21483C6.20705 36.3514 4.57959 34.724 4.57959 32.7162V9.08787C4.57959 7.08034 6.20705 5.45264 8.21483 5.45264Z" fill="#CCD4FF"/>
<path d="M10.0322 7.27002H31.8432C33.8509 7.27002 35.4784 8.89748 35.4784 10.9053V34.5336C35.4784 36.5414 33.8509 38.1688 31.8432 38.1688H10.0322C8.02468 38.1688 6.39722 36.5414 6.39722 34.5336V10.9053C6.39722 8.89748 8.02468 7.27002 10.0322 7.27002Z" fill="#DFE5FF"/>
<path d="M30.0255 9.08789C31.0294 9.08789 31.8431 9.90162 31.8431 10.9055V34.5338C31.8431 35.5377 31.0294 36.3514 30.0255 36.3514C29.0219 36.3514 28.2081 35.5377 28.2081 34.5338V10.9055C28.2079 9.90162 29.0216 9.08789 30.0255 9.08789Z" fill="#CCD4FF"/>
<path d="M30.0255 25.4458H33.6607C34.6646 25.4458 35.4784 26.2595 35.4784 27.2634C35.4784 28.2673 34.6646 29.081 33.6607 29.081H30.0255C29.0219 29.081 28.2081 28.2673 28.2081 27.2634C28.2079 26.2595 29.0216 25.4458 30.0255 25.4458Z" fill="#CCD4FF"/>
<path d="M26.3905 9.08787H4.57957C2.57204 9.08787 0.944336 7.46041 0.944336 5.45264V36.3514C0.944336 38.3592 2.57204 39.9867 4.57957 39.9867H26.3905C28.398 39.9867 30.0255 38.3592 30.0255 36.3514V12.7231C30.0255 10.7153 28.398 9.08787 26.3905 9.08787Z" fill="#FFEA21"/>
<path d="M26.3905 9.08789H5.48839C4.98633 9.08741 4.5791 9.49391 4.57861 9.99573C4.57813 10.4976 4.98439 10.905 5.48645 10.9055C5.48694 10.9055 5.48767 10.9055 5.48839 10.9055H26.3905C27.3939 10.9067 28.2069 11.7197 28.2081 12.7231V15.4496C28.2081 15.9514 28.6149 16.3581 29.117 16.3581C29.6188 16.3581 30.0255 15.9514 30.0255 15.4496V12.7231C30.0255 10.7156 28.3981 9.08789 26.3905 9.08789Z" fill="#FFFC74"/>
<path d="M5.4884 10.9053C5.99022 10.9053 6.39721 11.312 6.39721 11.8141V39.0776C6.39721 39.5795 5.99022 39.9865 5.4884 39.9865C4.98633 39.9865 4.57959 39.5795 4.57959 39.0776V11.8141C4.57959 11.312 4.98633 10.9053 5.4884 10.9053Z" fill="#FFD700"/>
<path d="M9.12335 10.9053C9.62541 10.9053 10.0322 11.312 10.0322 11.8141V39.0776C10.0322 39.5795 9.62541 39.9865 9.12335 39.9865C8.62153 39.9865 8.21478 39.5795 8.21478 39.0776V11.8141C8.21478 11.312 8.62153 10.9053 9.12335 10.9053Z" fill="#FFD700"/>
<path d="M7.30578 10.9053C7.80785 10.9053 8.21459 11.312 8.21459 11.8141V39.0776C8.21459 39.5795 7.80785 39.9865 7.30578 39.9865C6.80396 39.9865 6.39722 39.5795 6.39722 39.0776V11.8141C6.39722 11.312 6.80396 10.9053 7.30578 10.9053Z" fill="#FFFC74"/>
<path d="M10.941 10.9053C11.4428 10.9053 11.8498 11.312 11.8498 11.8141V39.0776C11.8498 39.5795 11.4428 39.9865 10.941 39.9865C10.4392 39.9865 10.0322 39.5795 10.0322 39.0776V11.8141C10.0322 11.312 10.4392 10.9053 10.941 10.9053Z" fill="#FFFC74"/>
<path d="M28.2079 29.0814C27.759 29.0816 27.3258 28.9152 26.9923 28.6145L8.81633 12.2564C8.06978 11.5855 8.00866 10.4363 8.67953 9.69002C9.35065 8.94347 10.4996 8.88211 11.2461 9.55322C11.2469 9.55371 11.2476 9.55444 11.2481 9.55492L29.424 25.9132C30.1698 26.5849 30.2302 27.734 29.5586 28.4801C29.214 28.8628 28.7231 29.0814 28.2079 29.0814Z" fill="#FFD700"/>
<path d="M37.296 27.2636H31.4208C30.0728 27.2648 28.7725 26.7659 27.7713 25.8631L11.8374 11.5213C10.6887 10.4873 10.0327 9.0146 10.0322 7.46912V1.81762C10.0322 0.813733 10.8459 0 11.8498 0C12.8537 0 13.6674 0.813733 13.6674 1.81762V7.46912C13.6672 7.98355 13.8852 8.47373 14.2675 8.81814L30.205 23.1617C30.538 23.4629 30.9714 23.6293 31.4208 23.6286H37.296C38.2996 23.6281 39.1138 24.4416 39.1141 25.4455C39.1146 26.4491 38.3011 27.2633 37.2974 27.2636C37.2967 27.2636 37.2962 27.2636 37.296 27.2636Z" fill="#14A142"/>
<path d="M30.0255 27.2638C29.5766 27.264 29.1434 27.0976 28.8099 26.7969L10.6339 10.4388C9.88811 9.76719 9.82796 8.61803 10.4996 7.8722C11.1709 7.12663 12.3199 7.06623 13.0657 7.73735L31.2414 24.0954C31.9874 24.767 32.0478 25.9162 31.376 26.6623C31.0313 27.0452 30.5407 27.2638 30.0255 27.2638Z" fill="#4CC66E"/>
<path d="M22.7553 20.7207C22.3063 20.721 21.8732 20.5546 21.5394 20.2541L16.0868 15.3462C15.3405 14.6748 15.2799 13.5259 15.951 12.7796C16.6223 12.0335 17.7715 11.9727 18.5176 12.644C18.5178 12.6443 18.5181 12.6445 18.5183 12.6448L23.9712 17.5526C24.7172 18.2242 24.7774 19.3734 24.1058 20.1195C23.7611 20.5022 23.2704 20.7207 22.7553 20.7207Z" fill="#84D89C"/>
</g>
<defs>
<clipPath id="clip0_2_4869">
<rect width="40" height="40" fill="white"/>
</clipPath>
</defs>
</svg>
