<svg width="40" height="40" viewBox="0 0 40 40" fill="none" xmlns="http://www.w3.org/2000/svg">
<path d="M25.8617 16.6157H16.3059L23.447 38.103L25.5599 36.8832C25.7467 36.7753 25.8617 36.576 25.8617 36.3604V16.6157Z" fill="#FF8B47"/>
<path d="M14.495 16.6157L19.9998 39.9998C20.1041 39.9998 20.2084 39.973 20.3019 39.919L23.447 38.103V16.6157H14.495Z" fill="#F9B348"/>
<path d="M14.1382 16.6157V36.3604C14.1382 36.576 14.2532 36.7754 14.44 36.8832L19.6984 39.919C19.7917 39.9729 19.8958 39.9998 19.9999 39.9999V16.6158H14.1382V16.6157Z" fill="#F3DA49"/>
<path d="M19.6984 13.057L14.4397 16.0928C14.0373 16.3251 14.0373 16.906 14.4397 17.1382L19.6984 20.174C19.8851 20.2818 20.1152 20.2818 20.302 20.174L25.56 17.1381C25.9624 16.9059 25.9624 16.3251 25.56 16.0928L20.302 13.0569C20.1152 12.9491 19.8851 12.9491 19.6984 13.057Z" fill="#F9EDA4"/>
<path d="M11.7238 29.5947H2.16803L9.30914 38.1027L11.422 36.8828C11.6087 36.775 11.7238 36.5757 11.7238 36.3601V29.5947Z" fill="#5515A6"/>
<path d="M0.357178 29.5947L5.862 39.9995C5.96631 39.9995 6.07061 39.9726 6.16405 39.9186L9.30914 38.1027V29.5947H0.357178Z" fill="#793BCC"/>
<path d="M0.000244141 29.5947V36.3601C0.000244141 36.5757 0.115253 36.775 0.302053 36.8828L5.56052 39.9187C5.6538 39.9725 5.75786 39.9995 5.86201 39.9996V29.5948L0.000244141 29.5947Z" fill="#9255E3"/>
<path d="M5.56052 26.0364L0.301808 29.0723C-0.100603 29.3045 -0.100603 29.8854 0.301808 30.1176L5.56052 33.1534C5.74724 33.2612 5.97734 33.2612 6.16405 33.1534L11.4221 30.1176C11.8245 29.8854 11.8245 29.3046 11.4221 29.0723L6.16405 26.0364C5.97734 25.9286 5.74724 25.9286 5.56052 26.0364Z" fill="#AE7DF0"/>
<path d="M39.9999 3.63916H30.4441L37.5852 38.1026L39.698 36.8828C39.8847 36.7749 39.9998 36.5756 39.9998 36.36L39.9999 3.63916Z" fill="#3B88F5"/>
<path d="M28.6333 3.63916L34.1381 39.9994C34.2424 39.9994 34.3467 39.9725 34.4401 39.9185L37.5852 38.1026V3.63916H28.6333Z" fill="#28ABFA"/>
<path d="M28.2764 3.63916V36.36C28.2764 36.5756 28.3914 36.775 28.5782 36.8828L33.8367 39.9186C33.93 39.9725 34.034 39.9994 34.1382 39.9995V3.63916H28.2764Z" fill="#14CFFF"/>
<path d="M33.8367 0.0808143L28.578 3.11669C28.1756 3.34896 28.1756 3.9298 28.578 4.16207L33.8367 7.19794C34.0234 7.30571 34.2535 7.30571 34.4402 7.19794L39.6983 4.16215C40.1006 3.92988 40.1006 3.34912 39.6983 3.11677L34.4402 0.0808947C34.2534 -0.0269515 34.0234 -0.0269515 33.8367 0.0808143Z" fill="#8AE7FF"/>
</svg>
