<svg width="32" height="40" viewBox="0 0 32 40" fill="none" xmlns="http://www.w3.org/2000/svg">
<path d="M30.7578 16.6781L17.4219 0.740595C16.6875 -0.134405 15.3828 -0.251592 14.5078 0.482783C14.4141 0.560908 14.3281 0.646845 14.25 0.740595L0.914062 16.6781V36.8265H30.7578V16.6781Z" fill="url(#paint0_linear_2_4850)"/>
<path d="M5.90625 5.49854H25.7578C27.0938 5.49854 28.1797 6.58447 28.1797 7.92041V31.4048C28.1797 32.7407 27.0938 33.8267 25.7578 33.8267H5.90625C4.57031 33.8267 3.48438 32.7407 3.48438 31.4048V7.92041C3.49219 6.58447 4.57812 5.49854 5.90625 5.49854Z" fill="url(#paint1_linear_2_4850)"/>
<path d="M31.6641 18.9595V36.6704C31.6641 38.5063 30.1719 39.9907 28.3359 39.9907H3.32813C1.49219 39.9907 0.0078125 38.4985 0 36.6704V18.9595C0 18.1079 0.320313 17.2954 0.90625 16.6782L14.3281 32.0298C15.0547 32.8579 16.3125 32.9438 17.1484 32.2251C17.2188 32.1626 17.2812 32.1001 17.3438 32.0298L30.7578 16.6782C31.3438 17.2954 31.6641 18.1157 31.6641 18.9595Z" fill="url(#paint2_linear_2_4850)"/>
<path d="M7.80469 8.00635H10.9375C11.3906 8.00635 11.7578 8.37354 11.7578 8.82666V11.9517C11.7578 12.4048 11.3906 12.772 10.9375 12.772H7.80469C7.35156 12.772 6.98438 12.4048 6.98438 11.9517V8.82666C6.99219 8.37354 7.35156 8.00635 7.80469 8.00635Z" fill="url(#paint3_linear_2_4850)"/>
<path d="M15.3047 9.21729H23.5078C24.1563 9.21729 24.6797 9.74072 24.6797 10.3892C24.6797 11.0376 24.1563 11.561 23.5078 11.561H15.3047C14.6563 11.561 14.1328 11.0376 14.1328 10.3892C14.1328 9.74072 14.6641 9.21729 15.3047 9.21729Z" fill="url(#paint4_linear_2_4850)"/>
<path d="M8.17969 14.8423H23.5078C24.1563 14.8423 24.6797 15.3657 24.6797 16.0142C24.6797 16.6626 24.1563 17.186 23.5078 17.186H8.17969C7.53125 17.186 7.00781 16.6626 7.00781 16.0142C7.00781 15.3657 7.53125 14.8423 8.17969 14.8423Z" fill="url(#paint5_linear_2_4850)"/>
<path d="M8.17969 19.5298H23.5078C24.1563 19.5298 24.6797 20.0532 24.6797 20.7017C24.6797 21.3501 24.1563 21.8735 23.5078 21.8735H8.17969C7.53125 21.8735 7.00781 21.3501 7.00781 20.7017C7.00781 20.0532 7.53125 19.5298 8.17969 19.5298Z" fill="url(#paint6_linear_2_4850)"/>
<defs>
<linearGradient id="paint0_linear_2_4850" x1="2.68531" y1="12.2933" x2="28.987" y2="38.5942" gradientUnits="userSpaceOnUse">
<stop stop-color="#FEF8D7"/>
<stop offset="1" stop-color="#FDE670"/>
</linearGradient>
<linearGradient id="paint1_linear_2_4850" x1="3.29297" y1="7.11416" x2="28.3789" y2="32.2001" gradientUnits="userSpaceOnUse">
<stop stop-color="#E1F8FE"/>
<stop offset="1" stop-color="#83E2FC"/>
</linearGradient>
<linearGradient id="paint2_linear_2_4850" x1="2.80641" y1="14.7891" x2="28.8659" y2="40.8494" gradientUnits="userSpaceOnUse">
<stop stop-color="#F8DA30"/>
<stop offset="1" stop-color="#FDAB22"/>
</linearGradient>
<linearGradient id="paint3_linear_2_4850" x1="7.22766" y1="8.24572" x2="11.5145" y2="12.5326" gradientUnits="userSpaceOnUse">
<stop stop-color="#83DEFA"/>
<stop offset="1" stop-color="#17ADF6"/>
</linearGradient>
<linearGradient id="paint4_linear_2_4850" x1="16.5307" y1="7.50971" x2="22.2896" y2="13.2686" gradientUnits="userSpaceOnUse">
<stop stop-color="#AE71FD"/>
<stop offset="1" stop-color="#974DF5"/>
</linearGradient>
<linearGradient id="paint5_linear_2_4850" x1="11.1844" y1="11.3524" x2="20.507" y2="20.6758" gradientUnits="userSpaceOnUse">
<stop stop-color="#AE71FD"/>
<stop offset="1" stop-color="#974DF5"/>
</linearGradient>
<linearGradient id="paint6_linear_2_4850" x1="11.1844" y1="16.0399" x2="20.507" y2="25.3633" gradientUnits="userSpaceOnUse">
<stop stop-color="#AE71FD"/>
<stop offset="1" stop-color="#974DF5"/>
</linearGradient>
</defs>
</svg>
