<svg width="40" height="40" viewBox="0 0 40 40" fill="none" xmlns="http://www.w3.org/2000/svg">
<path d="M34.1664 29.597C33.7484 29.1821 33.2812 28.8368 32.7781 28.5649C33.4531 27.8548 33.8687 26.8962 33.8687 25.8415C33.8687 23.6603 32.0937 21.8853 29.9125 21.8853C27.7312 21.8853 25.9562 23.6603 25.9562 25.8415C25.9562 26.9009 26.3758 27.8642 27.0562 28.5751C25.1648 29.6087 23.8742 31.6321 23.8742 33.9462V35.1392C23.8742 36.8251 25.2453 38.1962 26.9312 38.1962H32.8937C34.5797 38.1962 35.9508 36.8251 35.9508 35.1392V33.8829C35.9508 32.2618 35.3172 30.7399 34.1664 29.5978V29.597Z" fill="url(#paint0_linear_2_4978)"/>
<path d="M14.3414 29.597C13.9234 29.1821 13.4562 28.8368 12.9531 28.5649C13.6281 27.8548 14.0437 26.8962 14.0437 25.8415C14.0437 23.6603 12.2687 21.8853 10.0875 21.8853C7.90622 21.8853 6.13123 23.6603 6.13123 25.8415C6.13123 26.9009 6.55076 27.8642 7.23123 28.5751C5.33982 29.6087 4.04919 31.6321 4.04919 33.9462V35.1392C4.04919 36.8251 5.42029 38.1962 7.10623 38.1962H13.0687C14.7547 38.1962 16.1258 36.8251 16.1258 35.1392V33.8829C16.1258 32.2618 15.4922 30.7399 14.3414 29.5978V29.597Z" fill="url(#paint1_linear_2_4978)"/>
<path d="M10.5891 15.4882C13.6801 15.4882 16.1859 12.9824 16.1859 9.89131C16.1859 6.80024 13.6801 4.29443 10.5891 4.29443C7.49799 4.29443 4.99219 6.80024 4.99219 9.89131C4.99219 12.9824 7.49799 15.4882 10.5891 15.4882Z" fill="url(#paint2_linear_2_4978)"/>
<path d="M29.411 15.4882C32.502 15.4882 35.0078 12.9824 35.0078 9.89131C35.0078 6.80024 32.502 4.29443 29.411 4.29443C26.3199 4.29443 23.8141 6.80024 23.8141 9.89131C23.8141 12.9824 26.3199 15.4882 29.411 15.4882Z" fill="url(#paint3_linear_2_4978)"/>
<path d="M20 17.9781C24.4662 17.9781 28.0867 14.3576 28.0867 9.89141C28.0867 5.42523 24.4662 1.80469 20 1.80469C15.5338 1.80469 11.9133 5.42523 11.9133 9.89141C11.9133 14.3576 15.5338 17.9781 20 17.9781Z" fill="url(#paint4_linear_2_4978)"/>
<path d="M22.4891 11.2896C22.4891 10.1225 21.5836 9.19746 20.182 8.93184C19.8258 8.86387 19.4648 8.69199 19.4648 8.49355C19.4648 8.26465 19.7102 8.07168 20.0008 8.07168C20.2609 8.07168 20.4422 8.21465 20.507 8.35605C20.7305 8.84668 21.3094 9.06387 21.8 8.84043C22.2906 8.61699 22.5078 8.03809 22.2844 7.54746C22.0258 6.97871 21.5516 6.54355 20.9773 6.30996V5.88965C20.9773 5.35059 20.5398 4.91309 20.0008 4.91309C19.4617 4.91309 19.0242 5.35059 19.0242 5.88965V6.30918C18.1359 6.67246 17.5117 7.51465 17.5117 8.49355C17.5117 9.65996 18.4172 10.5857 19.8187 10.8514C20.175 10.9193 20.5359 11.0912 20.5359 11.2904C20.5359 11.5186 20.2906 11.7123 20 11.7123C19.7398 11.7123 19.5586 11.5693 19.4938 11.4279C19.2703 10.9373 18.6914 10.7201 18.2008 10.9436C17.7102 11.167 17.493 11.7459 17.7164 12.2365C17.975 12.8045 18.4492 13.2396 19.0234 13.474V13.8943C19.0234 14.4334 19.4609 14.8709 20 14.8709C20.5391 14.8709 20.9766 14.4334 20.9766 13.8943V13.4748C21.8648 13.1115 22.4891 12.2693 22.4891 11.2912V11.2896Z" fill="url(#paint5_linear_2_4978)"/>
<path d="M23.9914 26.8656L20.9766 23.8508V20.2812C20.9766 19.7422 20.5391 19.3047 20 19.3047C19.4609 19.3047 19.0234 19.7422 19.0234 20.2812V23.8508L16.0086 26.8656C15.6273 27.2469 15.6273 27.8656 16.0086 28.2469C16.3898 28.6281 17.0086 28.6281 17.3898 28.2469L20 25.6367L22.6102 28.2469C22.8008 28.4375 23.0508 28.5328 23.3008 28.5328C23.5508 28.5328 23.8008 28.4375 23.9914 28.2469C24.3727 27.8656 24.3727 27.2469 23.9914 26.8656Z" fill="url(#paint6_linear_2_4978)"/>
<defs>
<linearGradient id="paint0_linear_2_4978" x1="29.9125" y1="38.1954" x2="29.9125" y2="21.8853" gradientUnits="userSpaceOnUse">
<stop stop-color="#B3B3B3"/>
<stop offset="1" stop-color="#E6E6E6"/>
</linearGradient>
<linearGradient id="paint1_linear_2_4978" x1="10.0875" y1="9.73053e-05" x2="10.0875" y2="9.73053e-05" gradientUnits="userSpaceOnUse">
<stop stop-color="#B3B3B3"/>
<stop offset="1" stop-color="#E6E6E6"/>
</linearGradient>
<linearGradient id="paint2_linear_2_4978" x1="10.5891" y1="15.4882" x2="10.5891" y2="4.29443" gradientUnits="userSpaceOnUse">
<stop stop-color="#FF9500"/>
<stop offset="1" stop-color="#FFCC1E"/>
</linearGradient>
<linearGradient id="paint3_linear_2_4978" x1="29.411" y1="-9.78337e-05" x2="29.411" y2="-9.78337e-05" gradientUnits="userSpaceOnUse">
<stop stop-color="#FF9500"/>
<stop offset="1" stop-color="#FFCC1E"/>
</linearGradient>
<linearGradient id="paint4_linear_2_4978" x1="20" y1="17.9781" x2="20" y2="1.80469" gradientUnits="userSpaceOnUse">
<stop stop-color="#FFBD00"/>
<stop offset="1" stop-color="#FFF065"/>
</linearGradient>
<linearGradient id="paint5_linear_2_4978" x1="20" y1="14.8693" x2="20" y2="4.91309" gradientUnits="userSpaceOnUse">
<stop stop-color="#FF9500"/>
<stop offset="1" stop-color="#FFCC1E"/>
</linearGradient>
<linearGradient id="paint6_linear_2_4978" x1="20" y1="19.3047" x2="20" y2="28.532" gradientUnits="userSpaceOnUse">
<stop stop-color="#CCCCCC"/>
<stop offset="1" stop-color="#999999"/>
</linearGradient>
</defs>
</svg>
