<svg width="40" height="40" viewBox="0 0 40 40" fill="none" xmlns="http://www.w3.org/2000/svg">
<path d="M35.5608 36.9363V38.2666C35.5608 38.5742 35.3115 38.8235 35.0039 38.8235H4.99615C4.68858 38.8235 4.43924 38.5742 4.43924 38.2666V36.9363C4.43924 36.6287 4.68858 36.3794 4.99615 36.3794H35.0039C35.3115 36.3794 35.5608 36.6287 35.5608 36.9363Z" fill="#4F5D99"/>
<path d="M21.1602 8.97039V36.3822H5.27789V1.17627L8.80156 2.90565L10.9427 3.95861L13.3074 5.11756L21.1602 8.97039Z" fill="#FDC72E"/>
<path d="M34.7192 21.0529V36.3824H21.1602V13.2588L26.0428 16.0647L27.925 17.1469L30.0073 18.3409L34.7192 21.0529Z" fill="#ED524E"/>
<path d="M18.9192 11.6938V12.8232C18.9192 12.9467 18.8191 13.0467 18.6956 13.0467H14.2603C14.1368 13.0467 14.0368 12.9467 14.0368 12.8232V11.6938C14.0368 11.5703 14.1368 11.4644 14.2603 11.4644H18.6956C18.8191 11.4644 18.9192 11.5703 18.9192 11.6938Z" fill="#E9E9FF"/>
<path d="M12.4074 11.6938V12.8232C12.4074 12.9467 12.3015 13.0467 12.178 13.0467H7.7486C7.6192 13.0467 7.5191 12.9467 7.5191 12.8232V11.6938C7.5191 11.5703 7.6192 11.4644 7.7486 11.4644H12.178C12.3015 11.4644 12.4074 11.5703 12.4074 11.6938Z" fill="#E9E9FF"/>
<path d="M18.9192 15.272V16.4013C18.9192 16.5248 18.8191 16.6248 18.6956 16.6248H14.2603C14.1368 16.6248 14.0368 16.5248 14.0368 16.4013V15.272C14.0368 15.1485 14.1368 15.0425 14.2603 15.0425H18.6956C18.8191 15.0425 18.9192 15.1485 18.9192 15.272Z" fill="#E9E9FF"/>
<path d="M12.4074 15.272V16.4013C12.4074 16.5248 12.3015 16.6248 12.178 16.6248H7.7486C7.6192 16.6248 7.5191 16.5248 7.5191 16.4013V15.272C7.5191 15.1485 7.6192 15.0425 7.7486 15.0425H12.178C12.3015 15.0425 12.4074 15.1485 12.4074 15.272Z" fill="#E9E9FF"/>
<path d="M12.4074 8.11523V9.2446C12.4074 9.36811 12.3015 9.46806 12.178 9.46806H7.7486C7.6192 9.46806 7.5191 9.36811 7.5191 9.2446V8.11523C7.5191 7.99173 7.6192 7.88574 7.7486 7.88574H12.178C12.3015 7.88574 12.4074 7.99173 12.4074 8.11523Z" fill="#E9E9FF"/>
<path d="M18.9192 18.8506V19.98C18.9192 20.1035 18.8191 20.2034 18.6956 20.2034H14.2603C14.1368 20.2034 14.0368 20.1035 14.0368 19.98V18.8506C14.0368 18.7271 14.1368 18.6211 14.2603 18.6211H18.6956C18.8191 18.6211 18.9192 18.7271 18.9192 18.8506Z" fill="#E9E9FF"/>
<path d="M12.4074 18.8506V19.98C12.4074 20.1035 12.3015 20.2034 12.178 20.2034H7.7486C7.6192 20.2034 7.5191 20.1035 7.5191 19.98V18.8506C7.5191 18.7271 7.6192 18.6211 7.7486 18.6211H12.178C12.3015 18.6211 12.4074 18.7271 12.4074 18.8506Z" fill="#E9E9FF"/>
<path d="M18.9192 22.4292V23.5586C18.9192 23.6821 18.8191 23.782 18.6956 23.782H14.2603C14.1368 23.782 14.0368 23.6821 14.0368 23.5586V22.4292C14.0368 22.3057 14.1368 22.1997 14.2603 22.1997H18.6956C18.8191 22.1997 18.9192 22.3057 18.9192 22.4292Z" fill="#E9E9FF"/>
<path d="M12.4074 22.4292V23.5586C12.4074 23.6821 12.3015 23.782 12.178 23.782H7.7486C7.6192 23.782 7.5191 23.6821 7.5191 23.5586V22.4292C7.5191 22.3057 7.6192 22.1997 7.7486 22.1997H12.178C12.3015 22.1997 12.4074 22.3057 12.4074 22.4292Z" fill="#E9E9FF"/>
<path d="M18.9192 26.0073V27.1367C18.9192 27.2602 18.8191 27.3602 18.6956 27.3602H14.2603C14.1368 27.3602 14.0368 27.2602 14.0368 27.1367V26.0073C14.0368 25.8838 14.1368 25.7778 14.2603 25.7778H18.6956C18.8191 25.7778 18.9192 25.8838 18.9192 26.0073Z" fill="#E9E9FF"/>
<path d="M12.4074 26.0073V27.1367C12.4074 27.2602 12.3015 27.3602 12.178 27.3602H7.7486C7.6192 27.3602 7.5191 27.2602 7.5191 27.1367V26.0073C7.5191 25.8838 7.6192 25.7778 7.7486 25.7778H12.178C12.3015 25.7778 12.4074 25.8838 12.4074 26.0073Z" fill="#E9E9FF"/>
<path d="M18.9192 29.5859V30.7153C18.9192 30.8388 18.8191 30.9388 18.6956 30.9388H14.2603C14.1368 30.9388 14.0368 30.8388 14.0368 30.7153V29.5859C14.0368 29.4624 14.1368 29.3564 14.2603 29.3564H18.6956C18.8191 29.3564 18.9192 29.4624 18.9192 29.5859Z" fill="#E9E9FF"/>
<path d="M12.4074 29.5859V30.7153C12.4074 30.8388 12.3015 30.9388 12.178 30.9388H7.7486C7.6192 30.9388 7.5191 30.8388 7.5191 30.7153V29.5859C7.5191 29.4624 7.6192 29.3564 7.7486 29.3564H12.178C12.3015 29.3564 12.4074 29.4624 12.4074 29.5859Z" fill="#E9E9FF"/>
<path d="M18.9192 33.1641V34.2934C18.9192 34.4169 18.8191 34.5169 18.6956 34.5169H14.2603C14.1368 34.5169 14.0368 34.4169 14.0368 34.2934V33.1641C14.0368 33.0406 14.1368 32.9346 14.2603 32.9346H18.6956C18.8191 32.9346 18.9192 33.0406 18.9192 33.1641Z" fill="#E9E9FF"/>
<path d="M12.4074 33.1641V34.2934C12.4074 34.4169 12.3015 34.5169 12.178 34.5169H7.7486C7.6192 34.5169 7.5191 34.4169 7.5191 34.2934V33.1641C7.5191 33.0406 7.6192 32.9346 7.7486 32.9346H12.178C12.3015 32.9346 12.4074 33.0406 12.4074 33.1641Z" fill="#E9E9FF"/>
<path d="M32.9147 23.1832V24.169C32.9147 24.2768 32.8273 24.364 32.7195 24.364H28.8481C28.7403 24.364 28.6531 24.2768 28.6531 24.169V23.1832C28.6531 23.0754 28.7403 22.9829 28.8481 22.9829H32.7195C32.8273 22.9829 32.9147 23.0754 32.9147 23.1832Z" fill="#E9E9FF"/>
<path d="M27.2308 23.1832V24.169C27.2308 24.2768 27.1384 24.364 27.0306 24.364H23.1644C23.0514 24.364 22.9641 24.2768 22.9641 24.169V23.1832C22.9641 23.0754 23.0514 22.9829 23.1644 22.9829H27.0306C27.1384 22.9829 27.2308 23.0754 27.2308 23.1832Z" fill="#E9E9FF"/>
<path d="M32.9147 26.3068V27.2925C32.9147 27.4003 32.8273 27.4876 32.7195 27.4876H28.8481C28.7403 27.4876 28.6531 27.4003 28.6531 27.2925V26.3068C28.6531 26.199 28.7403 26.1064 28.8481 26.1064H32.7195C32.8273 26.1064 32.9147 26.199 32.9147 26.3068Z" fill="#E9E9FF"/>
<path d="M27.2308 26.3068V27.2925C27.2308 27.4003 27.1384 27.4876 27.0306 27.4876H23.1644C23.0514 27.4876 22.9641 27.4003 22.9641 27.2925V26.3068C22.9641 26.199 23.0514 26.1064 23.1644 26.1064H27.0306C27.1384 26.1064 27.2308 26.199 27.2308 26.3068Z" fill="#E9E9FF"/>
<path d="M27.2308 20.0597V21.0455C27.2308 21.1533 27.1384 21.2405 27.0306 21.2405H23.1644C23.0514 21.2405 22.9641 21.1533 22.9641 21.0455V20.0597C22.9641 19.9519 23.0514 19.8594 23.1644 19.8594H27.0306C27.1384 19.8594 27.2308 19.9519 27.2308 20.0597Z" fill="#E9E9FF"/>
<path d="M32.9147 29.4303V30.4161C32.9147 30.5239 32.8273 30.6111 32.7195 30.6111H28.8481C28.7403 30.6111 28.6531 30.5239 28.6531 30.4161V29.4303C28.6531 29.3225 28.7403 29.23 28.8481 29.23H32.7195C32.8273 29.23 32.9147 29.3225 32.9147 29.4303Z" fill="#E9E9FF"/>
<path d="M27.2308 29.4303V30.4161C27.2308 30.5239 27.1384 30.6111 27.0306 30.6111H23.1644C23.0514 30.6111 22.9641 30.5239 22.9641 30.4161V29.4303C22.9641 29.3225 23.0514 29.23 23.1644 29.23H27.0306C27.1384 29.23 27.2308 29.3225 27.2308 29.4303Z" fill="#E9E9FF"/>
<path d="M32.9147 32.5533V33.5391C32.9147 33.6469 32.8273 33.7342 32.7195 33.7342H28.8481C28.7403 33.7342 28.6531 33.6469 28.6531 33.5391V32.5533C28.6531 32.4455 28.7403 32.353 28.8481 32.353H32.7195C32.8273 32.353 32.9147 32.4455 32.9147 32.5533Z" fill="#E9E9FF"/>
<path d="M27.2308 32.5533V33.5391C27.2308 33.6469 27.1384 33.7342 27.0306 33.7342H23.1644C23.0514 33.7342 22.9641 33.6469 22.9641 33.5391V32.5533C22.9641 32.4455 23.0514 32.353 23.1644 32.353H27.0306C27.1384 32.353 27.2308 32.4455 27.2308 32.5533Z" fill="#E9E9FF"/>
<path d="M1.17648 37.9265C1.17648 38.2435 1.23764 38.5448 1.34182 38.8234H10.9632C10.9021 37.9581 10.1818 37.2719 9.29854 37.2719C9.04711 37.2719 8.80701 37.3285 8.59412 37.4305C8.22945 36.7464 7.50921 36.2821 6.68027 36.2821C6.36995 36.2821 6.07555 36.3478 5.80825 36.4655C5.35073 35.8087 4.58748 35.3784 3.72453 35.3784C2.31802 35.3784 1.17648 36.52 1.17648 37.9265Z" fill="#7BD681"/>
<g opacity="0.3">
<path d="M2.00137 37.8227C2.18873 37.9541 2.59456 37.7166 2.90053 37.2858C3.20649 36.8549 3.30025 36.3991 3.11289 36.2616C2.91928 36.1305 2.5197 36.368 2.20749 36.7988C1.90137 37.2297 1.80776 37.6855 2.00137 37.8227Z" fill="white"/>
</g>
<g opacity="0.2">
<path d="M16.0192 36.3822H8.57207L5.27789 21.0938V1.17627L8.80156 2.90565L16.0192 36.3822Z" fill="white"/>
<path d="M20.0427 36.3821H17.931L10.9427 3.9585L13.3074 5.11745L20.0427 36.3821Z" fill="white"/>
</g>
<g opacity="0.2">
<path d="M30.425 36.3824H24.0015L21.1602 23.1999V13.2588L26.0428 16.0647L30.425 36.3824Z" fill="white"/>
<path d="M33.8897 36.3824H32.0722L27.925 17.147L30.0073 18.341L33.8897 36.3824Z" fill="white"/>
</g>
<path d="M38.8235 37.9265C38.8235 38.2435 38.7624 38.5448 38.6582 38.8234H29.0368C29.098 37.9581 29.8182 37.2719 30.7015 37.2719C30.9529 37.2719 31.193 37.3285 31.4059 37.4305C31.7706 36.7464 32.4908 36.2821 33.3198 36.2821C33.6301 36.2821 33.9245 36.3478 34.1918 36.4655C34.6493 35.8087 35.4126 35.3784 36.2755 35.3784C37.682 35.3784 38.8235 36.52 38.8235 37.9265Z" fill="#7BD681"/>
<g opacity="0.3">
<path d="M37.9987 37.8227C37.8113 37.9541 37.4055 37.7166 37.0995 37.2858C36.7935 36.8549 36.6998 36.3991 36.8871 36.2616C37.0808 36.1305 37.4803 36.368 37.7925 36.7988C38.0987 37.2297 38.1923 37.6855 37.9987 37.8227Z" fill="white"/>
</g>
</svg>
