<svg width="40" height="40" viewBox="0 0 40 40" fill="none" xmlns="http://www.w3.org/2000/svg">
<g clip-path="url(#clip0_2_4937)">
<path d="M23.6115 1.39059C21.5608 -0.463529 18.4392 -0.463529 16.3885 1.39059L1.25647 15.0719C0.456471 15.7952 0 16.8233 0 17.9018V36.692C0 38.519 1.48102 40 3.308 40H36.692C38.519 40 40 38.519 40 36.692V17.9018C40 16.8233 39.5435 15.7952 38.7435 15.0719L23.6115 1.39059Z" fill="url(#paint0_linear_2_4937)"/>
<path d="M23.6115 1.39059C21.5608 -0.463529 18.4392 -0.463529 16.3885 1.39059L1.25647 15.0719C0.456471 15.7952 0 16.8233 0 17.9018V36.692C0 38.519 1.48102 40 3.308 40H36.692C38.519 40 40 38.519 40 36.692V17.9018C40 16.8233 39.5435 15.7952 38.7435 15.0719L23.6115 1.39059Z" fill="url(#paint1_linear_2_4937)"/>
<path d="M38.7435 15.0721L27.5479 4.94971V34.0034H40V17.9019C40 16.8234 39.5435 15.7954 38.7435 15.0721Z" fill="url(#paint2_linear_2_4937)"/>
<path d="M23.0591 4.23648C21.3221 2.66597 18.6779 2.66597 16.9409 4.23648L4.12312 15.8254C3.44547 16.438 3.05881 17.3089 3.05881 18.2225V34.1389C3.05881 35.6864 4.31332 36.9409 5.86085 36.9409H34.139C35.6867 36.9409 36.9412 35.6864 36.9412 34.1389V18.2225C36.9412 17.3089 36.5545 16.4381 35.8768 15.8254L23.0591 4.23648Z" fill="url(#paint3_linear_2_4937)"/>
<path d="M36.9412 18.2225C36.9412 17.309 36.5545 16.4381 35.8769 15.8254L27.5479 8.29492V34.0031H36.9412V18.2225Z" fill="url(#paint4_linear_2_4937)"/>
<path d="M32.3814 18.3948C32.3814 19.9214 31.7927 22.738 31.7927 22.738C30.0249 27.5364 25.4121 30.9585 20 30.9585C13.0613 30.9585 7.43631 25.3336 7.43631 18.3948C7.43631 17.7657 7.48258 17.0995 7.57184 16.4081C7.57184 16.4081 8.36517 13.2025 8.95545 11.5435C9.48321 10.0602 10.7578 7.20306 10.7578 7.20306C13.0536 3.17961 16.3445 0 20 0C25.3579 0 29.9324 6.83059 31.7387 13.1376C31.7387 13.1376 32.3814 16.814 32.3814 18.3948Z" fill="url(#paint5_linear_2_4937)"/>
<path d="M29.9777 8.58833C29.6799 8.77578 29.3818 8.96237 29.0842 9.14676C29.0575 9.16316 29.0153 9.15429 28.9985 9.12967C28.3081 8.11116 27.6231 7.07304 26.9635 6.04559C26.6694 5.58402 26.0689 5.43869 25.5979 5.71367C24.5383 6.32708 23.4543 6.9368 22.3777 7.52496C22.3501 7.53994 22.3088 7.52865 22.2934 7.50331C21.6615 6.45053 21.0347 5.37633 20.4312 4.31218C20.163 3.83531 19.5715 3.65712 19.0859 3.90575C17.9951 4.45963 16.8792 5.0088 15.7706 5.53735C15.7421 5.55084 15.7013 5.5372 15.6873 5.511C15.1901 4.56951 14.6993 3.61414 14.2236 2.66504C13.9803 2.89476 13.7415 3.13625 13.5078 3.38849C13.941 4.2481 14.3857 5.11069 14.8356 5.96269C15.094 6.44794 15.6857 6.64394 16.1841 6.40833C17.3013 5.87563 18.4245 5.32292 19.5239 4.76473C19.5478 4.75257 19.5779 4.76151 19.5918 4.78637C20.2 5.85892 20.8308 6.94002 21.4678 8.00104C21.6099 8.2361 21.8311 8.39437 22.0774 8.46128C22.3241 8.52818 22.5959 8.50347 22.8385 8.37202C23.9235 7.77924 25.0145 7.16567 26.0825 6.54739C26.1057 6.53398 26.1362 6.54135 26.1514 6.56527C26.8163 7.60088 27.5057 8.64574 28.2015 9.67225C28.5115 10.1261 29.1211 10.2562 29.5907 9.96747C29.8577 9.80206 30.1249 9.63531 30.3919 9.46747C30.259 9.17194 30.121 8.87869 29.9777 8.58833Z" fill="url(#paint6_linear_2_4937)"/>
<path d="M28.6324 25.6553C28.3136 25.2109 27.7058 25.0985 27.2504 25.3988C26.2265 26.0687 25.1771 26.7369 24.1329 27.3839C24.106 27.4003 24.0639 27.3913 24.0471 27.3668C23.3562 26.3472 22.6711 25.309 22.0122 24.2826C21.718 23.8212 21.1177 23.6757 20.6465 23.9507C19.5871 24.564 18.5031 25.1737 17.4262 25.762C17.3987 25.777 17.3573 25.7657 17.342 25.7403C16.7099 24.6872 16.0831 23.6131 15.4797 22.5491C15.2115 22.0723 14.6199 21.8942 14.1344 22.1427C13.0439 22.6964 11.9279 23.2456 10.8191 23.7743C10.7907 23.7878 10.7498 23.7741 10.7359 23.7479C10.1613 22.6599 9.59381 21.5527 9.0502 20.4589C8.8084 19.9679 8.22738 19.7576 7.72911 19.979C7.66848 20.0057 7.60707 20.0321 7.5462 20.0588C7.58989 20.389 7.64667 20.7151 7.71554 21.0367C7.84997 20.978 7.98503 20.9196 8.11891 20.8607C8.14362 20.8498 8.1735 20.8606 8.18613 20.8864C8.73413 21.9889 9.30511 23.1032 9.88417 24.1996C10.1425 24.6849 10.7342 24.8809 11.2326 24.6453C12.3501 24.1125 13.4733 23.5597 14.5725 23.0016C14.5963 22.9894 14.6264 22.9985 14.6403 23.0232C15.2484 24.0956 15.8793 25.1767 16.5163 26.2379C16.6584 26.473 16.8796 26.6312 17.126 26.6981C17.3726 26.765 17.6445 26.7403 17.887 26.6089C18.9723 26.016 20.0633 25.4024 21.131 24.7842C21.1541 24.7707 21.1846 24.7781 21.1999 24.8021C21.8642 25.8367 22.5536 26.8815 23.25 27.909C23.56 28.3629 24.1697 28.493 24.6392 28.2042C25.6915 27.5522 26.7477 26.8797 27.7796 26.2045C27.8021 26.1896 27.8333 26.1953 27.8502 26.2188C28.1408 26.6206 28.4361 27.0233 28.7332 27.4255C28.9677 27.1987 29.1933 26.9628 29.4096 26.7184C29.1482 26.364 28.8883 26.0092 28.6324 25.6553Z" fill="url(#paint7_linear_2_4937)"/>
<path d="M7.66998 15.7419C15.3495 19.1331 23.6166 21.3485 31.9603 22.2492C32.3515 21.0345 32.5637 19.7394 32.5637 18.3946C32.5637 17.0261 32.3447 15.4819 31.9403 13.8845C24.5007 13.125 17.1497 11.0623 10.4067 7.83936C9.0503 10.3816 8.08834 13.2005 7.66998 15.7419Z" fill="url(#paint8_linear_2_4937)"/>
<path d="M11.0822 12.5687C11.6535 12.419 11.954 11.8357 11.7824 11.2817C11.6108 10.7277 11.0373 10.4019 10.4728 10.5378C10.3482 10.0783 9.94738 9.76256 9.49295 9.72656C9.02228 10.8022 8.62291 11.9015 8.30487 12.987C8.51569 13.075 8.75013 13.1056 8.97899 13.0588C9.15656 13.6343 9.79758 13.9985 10.382 13.8557C10.9663 13.713 11.2668 13.1297 11.0822 12.5687Z" fill="url(#paint9_linear_2_4937)"/>
<path d="M16.3015 14.9673C16.8453 14.7412 17.0646 14.1229 16.8221 13.5978C16.5797 13.0728 15.9712 12.8287 15.4328 13.0405C15.2092 12.5069 14.6094 12.2404 14.0631 12.4322C13.5167 12.624 13.2263 13.2123 13.4441 13.7602C12.8844 13.9457 12.5939 14.534 12.8251 15.0882C13.0563 15.6423 13.7268 15.9401 14.2925 15.7398C14.5432 16.2849 15.2232 16.5578 15.7808 16.3368C16.3384 16.116 16.5577 15.4975 16.3015 14.9673Z" fill="url(#paint10_linear_2_4937)"/>
<path d="M21.778 16.6376C22.286 16.3405 22.4205 15.6983 22.1102 15.2106C21.7999 14.7229 21.1653 14.563 20.661 14.8453C20.3687 14.3467 19.7403 14.1638 19.226 14.4276C18.7118 14.6913 18.503 15.3134 18.7911 15.8266C18.2627 16.0861 18.0539 16.708 18.356 17.2257C18.6581 17.7433 19.3605 17.9478 19.8933 17.6731C20.2139 18.1794 20.9233 18.3582 21.4457 18.0645C21.9682 17.7708 22.1026 17.1286 21.778 16.6376Z" fill="url(#paint11_linear_2_4937)"/>
<path d="M27.4358 17.5587C27.9008 17.1962 27.9477 16.5417 27.5733 16.1C27.199 15.6583 26.5468 15.5848 26.0841 15.9321C25.7267 15.4771 25.0784 15.38 24.6037 15.7103C24.129 16.0406 24.0055 16.685 24.3602 17.1551C23.8711 17.4829 23.7475 18.1274 24.1169 18.5999C24.4861 19.0724 25.2108 19.181 25.7028 18.8374C26.0894 19.2962 26.8184 19.3784 27.2982 19.0173C27.778 18.6562 27.8249 18.0018 27.4358 17.5587Z" fill="url(#paint12_linear_2_4937)"/>
<path d="M32.366 15.9673C32.0981 15.976 31.8334 16.0809 31.6288 16.2816C31.2104 15.879 30.5509 15.87 30.1228 16.2611C29.6946 16.6522 29.6588 17.3074 30.076 17.7255C29.633 18.1161 29.5973 18.7713 30.0293 19.1899C30.4612 19.6085 31.1984 19.6185 31.6426 19.2118C31.8811 19.426 32.2019 19.5201 32.5148 19.4987C32.5465 19.1348 32.5637 18.7667 32.5637 18.3945C32.5637 17.6329 32.4958 16.8167 32.366 15.9673Z" fill="url(#paint13_linear_2_4937)"/>
<path d="M10.2202 8.1956C17.0824 11.5059 24.4642 13.5708 32.0419 14.3014C31.9518 13.9167 31.8504 13.5281 31.7386 13.1376C24.4551 12.3874 17.3627 10.3824 10.758 7.20312C10.5722 7.52893 10.3927 7.86007 10.2202 8.1956Z" fill="url(#paint14_linear_2_4937)"/>
<path d="M7.57208 16.4081C15.1544 20.0802 23.374 22.2299 31.7925 22.7379C31.9259 22.3757 32.0426 22.0056 32.1427 21.6286C23.6589 21.1545 15.3773 18.9847 7.75812 15.2441C7.6833 15.6386 7.62126 16.0271 7.57208 16.4081Z" fill="url(#paint15_linear_2_4937)"/>
<path d="M7.46548 19.2432C7.90196 25.7861 13.3465 30.9584 20 30.9584C25.406 30.9584 30.0139 27.5439 31.7859 22.754C31.7859 22.754 32.2705 20.47 32.3523 19.2432H7.46548Z" fill="url(#paint16_linear_2_4937)"/>
<path d="M39.6881 16.3936C39.8911 16.865 40 17.3774 40 17.9019V36.6921C40 38.5191 38.519 40.0001 36.692 40.0001H3.30799C2.52171 40.0001 1.79999 39.7253 1.2323 39.2672L39.6881 16.3936Z" fill="url(#paint17_linear_2_4937)"/>
<path d="M31.6096 21.1987L1.2323 39.2672C1.79991 39.7253 2.52171 40.0001 3.30799 40.0001H36.692C38.519 40.0001 40 38.5191 40 36.6921V29.5891L31.6096 21.1987Z" fill="url(#paint18_linear_2_4937)"/>
<path d="M0.311843 16.3936C0.0941961 16.8653 0 17.146 0 17.9019V36.6921C0 38.5191 1.48102 40.0001 3.308 40.0001H36.692C37.4783 40.0001 38.2 39.7253 38.7677 39.2672L0.311843 16.3936Z" fill="url(#paint19_linear_2_4937)"/>
<path d="M0 36.6919C0 38.5189 1.48102 39.9999 3.308 39.9999H36.692C37.4783 39.9999 38.2 39.7251 38.7677 39.267L25.7647 31.5327H0V36.6919Z" fill="url(#paint20_linear_2_4937)"/>
</g>
<defs>
<linearGradient id="paint0_linear_2_4937" x1="7.45028" y1="14.6422" x2="28.1024" y2="35.2944" gradientUnits="userSpaceOnUse">
<stop stop-color="#FFEFA4"/>
<stop offset="1" stop-color="#FFBE50"/>
</linearGradient>
<linearGradient id="paint1_linear_2_4937" x1="23.6684" y1="21.7548" x2="17.904" y2="30.3427" gradientUnits="userSpaceOnUse">
<stop stop-color="#FFA100" stop-opacity="0"/>
<stop offset="0.1593" stop-color="#FF9C03" stop-opacity="0.159"/>
<stop offset="0.3553" stop-color="#FF8D0A" stop-opacity="0.355"/>
<stop offset="0.5705" stop-color="#FF7416" stop-opacity="0.571"/>
<stop offset="0.7979" stop-color="#FF5128" stop-opacity="0.798"/>
<stop offset="1" stop-color="#FF2C3A"/>
</linearGradient>
<linearGradient id="paint2_linear_2_4937" x1="40.8548" y1="16.4263" x2="33.2082" y2="19.7203" gradientUnits="userSpaceOnUse">
<stop stop-color="#FFA100" stop-opacity="0"/>
<stop offset="0.1593" stop-color="#FF9C03" stop-opacity="0.159"/>
<stop offset="0.3553" stop-color="#FF8D0A" stop-opacity="0.355"/>
<stop offset="0.5705" stop-color="#FF7416" stop-opacity="0.571"/>
<stop offset="0.7979" stop-color="#FF5128" stop-opacity="0.798"/>
<stop offset="1" stop-color="#FF2C3A"/>
</linearGradient>
<linearGradient id="paint3_linear_2_4937" x1="18.6976" y1="12.6597" x2="19.6388" y2="22.4239" gradientUnits="userSpaceOnUse">
<stop stop-color="#B4EBA8"/>
<stop offset="1" stop-color="#24CE20"/>
</linearGradient>
<linearGradient id="paint4_linear_2_4937" x1="36.4553" y1="20.3834" x2="32.5731" y2="21.0893" gradientUnits="userSpaceOnUse">
<stop stop-color="#007E49" stop-opacity="0"/>
<stop offset="1" stop-color="#007E49"/>
</linearGradient>
<linearGradient id="paint5_linear_2_4937" x1="15.5757" y1="15.4792" x2="27.1808" y2="15.4792" gradientUnits="userSpaceOnUse">
<stop stop-color="#D9B1EE"/>
<stop offset="0.1735" stop-color="#CFA6E6"/>
<stop offset="0.4762" stop-color="#B789D0"/>
<stop offset="0.8697" stop-color="#905BAD"/>
<stop offset="1" stop-color="#814AA0"/>
</linearGradient>
<linearGradient id="paint6_linear_2_4937" x1="15.9894" y1="0.890216" x2="27.4791" y2="12.3799" gradientUnits="userSpaceOnUse">
<stop stop-color="#FFF9F7"/>
<stop offset="1" stop-color="#FFDDCC"/>
</linearGradient>
<linearGradient id="paint7_linear_2_4937" x1="10.9568" y1="16.6483" x2="25.2349" y2="30.9264" gradientUnits="userSpaceOnUse">
<stop stop-color="#FFF9F7"/>
<stop offset="1" stop-color="#FFDDCC"/>
</linearGradient>
<linearGradient id="paint8_linear_2_4937" x1="15.1799" y1="15.0443" x2="22.6003" y2="15.0443" gradientUnits="userSpaceOnUse">
<stop stop-color="#FFF9F7"/>
<stop offset="1" stop-color="#FFDDCC"/>
</linearGradient>
<linearGradient id="paint9_linear_2_4937" x1="9.02973" y1="11.0307" x2="12.1915" y2="14.1925" gradientUnits="userSpaceOnUse">
<stop stop-color="#FFA0AD"/>
<stop offset="1" stop-color="#FF4465"/>
</linearGradient>
<linearGradient id="paint10_linear_2_4937" x1="13.2701" y1="12.7999" x2="15.8039" y2="15.3338" gradientUnits="userSpaceOnUse">
<stop stop-color="#FFA0AD"/>
<stop offset="1" stop-color="#FF4465"/>
</linearGradient>
<linearGradient id="paint11_linear_2_4937" x1="18.742" y1="14.7337" x2="21.1125" y2="17.1042" gradientUnits="userSpaceOnUse">
<stop stop-color="#FFA0AD"/>
<stop offset="1" stop-color="#FF4465"/>
</linearGradient>
<linearGradient id="paint12_linear_2_4937" x1="24.535" y1="16.0428" x2="26.5418" y2="18.0497" gradientUnits="userSpaceOnUse">
<stop stop-color="#FFA0AD"/>
<stop offset="1" stop-color="#FF4465"/>
</linearGradient>
<linearGradient id="paint13_linear_2_4937" x1="29.2231" y1="15.6041" x2="31.3783" y2="17.7594" gradientUnits="userSpaceOnUse">
<stop stop-color="#FFA0AD"/>
<stop offset="1" stop-color="#FF4465"/>
</linearGradient>
<linearGradient id="paint14_linear_2_4937" x1="17.754" y1="10.7523" x2="23.7664" y2="10.7523" gradientUnits="userSpaceOnUse">
<stop stop-color="#FFEFA4"/>
<stop offset="1" stop-color="#FFBE50"/>
</linearGradient>
<linearGradient id="paint15_linear_2_4937" x1="17.754" y1="18.991" x2="23.7664" y2="18.991" gradientUnits="userSpaceOnUse">
<stop stop-color="#FFEFA4"/>
<stop offset="1" stop-color="#FFBE50"/>
</linearGradient>
<linearGradient id="paint16_linear_2_4937" x1="19.9089" y1="21.0638" x2="19.9089" y2="29.7858" gradientUnits="userSpaceOnUse">
<stop stop-color="#5B3374" stop-opacity="0"/>
<stop offset="1" stop-color="#5B3374"/>
</linearGradient>
<linearGradient id="paint17_linear_2_4937" x1="20.9609" y1="28.7915" x2="26.8429" y2="40.0851" gradientUnits="userSpaceOnUse">
<stop stop-color="#FFEFA4"/>
<stop offset="1" stop-color="#FFBE50"/>
</linearGradient>
<linearGradient id="paint18_linear_2_4937" x1="26.6454" y1="26.8092" x2="23.7044" y2="32.4559" gradientUnits="userSpaceOnUse">
<stop stop-color="#FFA100" stop-opacity="0"/>
<stop offset="0.1593" stop-color="#FF9C03" stop-opacity="0.159"/>
<stop offset="0.3553" stop-color="#FF8D0A" stop-opacity="0.355"/>
<stop offset="0.5705" stop-color="#FF7416" stop-opacity="0.571"/>
<stop offset="0.7979" stop-color="#FF5128" stop-opacity="0.798"/>
<stop offset="1" stop-color="#FF2C3A"/>
</linearGradient>
<linearGradient id="paint19_linear_2_4937" x1="14.9753" y1="26.8049" x2="20.0339" y2="39.9807" gradientUnits="userSpaceOnUse">
<stop stop-color="#FFEFA4"/>
<stop offset="1" stop-color="#FFBE50"/>
</linearGradient>
<linearGradient id="paint20_linear_2_4937" x1="19.3838" y1="34.2385" x2="19.3838" y2="41.536" gradientUnits="userSpaceOnUse">
<stop stop-color="#FFA100" stop-opacity="0"/>
<stop offset="0.1593" stop-color="#FF9C03" stop-opacity="0.159"/>
<stop offset="0.3553" stop-color="#FF8D0A" stop-opacity="0.355"/>
<stop offset="0.5705" stop-color="#FF7416" stop-opacity="0.571"/>
<stop offset="0.7979" stop-color="#FF5128" stop-opacity="0.798"/>
<stop offset="1" stop-color="#FF2C3A"/>
</linearGradient>
<clipPath id="clip0_2_4937">
<rect width="40" height="40" fill="white"/>
</clipPath>
</defs>
</svg>
