<svg width="40" height="40" viewBox="0 0 40 40" fill="none" xmlns="http://www.w3.org/2000/svg">
<path d="M31.7513 8.18359C30.2231 6.64043 28.403 5.41686 26.3971 4.58419C24.3913 3.75152 22.2398 3.32639 20.068 3.33359C10.968 3.33359 3.5513 10.7503 3.5513 19.8503C3.5513 22.7669 4.31797 25.6003 5.7513 28.1003L3.41797 36.6669L12.168 34.3669C14.5846 35.6836 17.3013 36.3836 20.068 36.3836C29.168 36.3836 36.5846 28.9669 36.5846 19.8669C36.5846 15.4503 34.868 11.3003 31.7513 8.18359ZM20.068 33.5836C17.6013 33.5836 15.1846 32.9169 13.068 31.6669L12.568 31.3669L7.36797 32.7336L8.7513 27.6669L8.41797 27.1503C7.04721 24.962 6.31951 22.4324 6.31797 19.8503C6.31797 12.2836 12.4846 6.11692 20.0513 6.11692C23.718 6.11692 27.168 7.55025 29.7513 10.1503C31.0307 11.4234 32.0445 12.9378 32.734 14.6058C33.4235 16.2738 33.775 18.0621 33.768 19.8669C33.8013 27.4336 27.6346 33.5836 20.068 33.5836ZM27.6013 23.3169C27.1846 23.1169 25.1513 22.1169 24.7846 21.9669C24.4013 21.8336 24.1346 21.7669 23.8513 22.1669C23.568 22.5836 22.7846 23.5169 22.5513 23.7836C22.318 24.0669 22.068 24.1003 21.6513 23.8836C21.2346 23.6836 19.9013 23.2336 18.3346 21.8336C17.1013 20.7336 16.2846 19.3836 16.0346 18.9669C15.8013 18.5503 16.0013 18.3336 16.218 18.1169C16.4013 17.9336 16.6346 17.6336 16.8346 17.4003C17.0346 17.1669 17.118 16.9836 17.2513 16.7169C17.3846 16.4336 17.318 16.2003 17.218 16.0003C17.118 15.8003 16.2846 13.7669 15.9513 12.9336C15.618 12.1336 15.268 12.2336 15.018 12.2169H14.218C13.9346 12.2169 13.5013 12.3169 13.118 12.7336C12.7513 13.1503 11.6846 14.1503 11.6846 16.1836C11.6846 18.2169 13.168 20.1836 13.368 20.4503C13.568 20.7336 16.2846 24.9003 20.418 26.6836C21.4013 27.1169 22.168 27.3669 22.768 27.5503C23.7513 27.8669 24.6513 27.8169 25.368 27.7169C26.168 27.6003 27.818 26.7169 28.1513 25.7503C28.5013 24.7836 28.5013 23.9669 28.3846 23.7836C28.268 23.6003 28.018 23.5169 27.6013 23.3169Z" fill="white"/>
</svg>
