<svg width="40" height="40" viewBox="0 0 40 40" fill="none" xmlns="http://www.w3.org/2000/svg">
<path d="M31.7 8.29155C29.385 5.97755 26.4357 4.40198 23.2253 3.7641C20.0148 3.12621 16.6873 3.45465 13.6635 4.70788C10.6396 5.96111 8.05535 8.08285 6.23737 10.8048C4.4194 13.5267 3.44939 16.7267 3.45 19.9999C3.45 24.39 5.19339 28.6004 8.29688 31.7054C11.4004 34.8105 15.6099 36.556 20 36.5582C22.1724 36.5583 24.3239 36.1336 26.3333 35.3082C28.336 34.4624 30.1578 33.2403 31.7 31.7082C33.2377 30.1707 34.4575 28.3454 35.2898 26.3365C36.122 24.3276 36.5503 22.1744 36.5503 19.9999C36.5503 17.8254 36.122 15.6722 35.2898 13.6633C34.4575 11.6543 33.2377 9.82902 31.7 8.29155ZM30.5333 30.5249C28.1502 32.9184 25.023 34.4291 21.6667 34.8082V23.8749H24.8C25.242 23.8749 25.666 23.6993 25.9785 23.3867C26.2911 23.0742 26.4667 22.6502 26.4667 22.2082C26.4667 21.7662 26.2911 21.3423 25.9785 21.0297C25.666 20.7171 25.242 20.5415 24.8 20.5415H21.6667V15.9749C21.6667 15.5329 21.8423 15.1089 22.1548 14.7964C22.4674 14.4838 22.8913 14.3082 23.3333 14.3082H25.3333C25.7754 14.3082 26.1993 14.1326 26.5119 13.8201C26.8244 13.5075 27 13.0836 27 12.6415C27 12.1995 26.8244 11.7756 26.5119 11.463C26.1993 11.1505 25.7754 10.9749 25.3333 10.9749H22.5C21.3949 10.9749 20.3351 11.4139 19.5537 12.1953C18.7723 12.9767 18.3333 14.0365 18.3333 15.1415V20.5415H15.2167C14.7746 20.5415 14.3507 20.7171 14.0382 21.0297C13.7256 21.3423 13.55 21.7662 13.55 22.2082C13.55 22.6502 13.7256 23.0742 14.0382 23.3867C14.3507 23.6993 14.7746 23.8749 15.2167 23.8749H18.3333V34.8082C15.2382 34.4551 12.3321 33.1385 10.0257 31.0443C7.71937 28.9502 6.12919 26.1844 5.47983 23.1375C4.83048 20.0907 5.15476 16.9169 6.40689 14.0643C7.65901 11.2118 9.77568 8.82468 12.4579 7.24025C15.1402 5.65582 18.2524 4.95411 21.355 5.23425C24.4577 5.51439 27.3939 6.76221 29.749 8.80146C32.104 10.8407 33.7589 13.5683 34.4798 16.599C35.2007 19.6297 34.9513 22.8103 33.7667 25.6915C33.0107 27.4961 31.9128 29.1374 30.5333 30.5249Z" fill="white"/>
</svg>
