<svg width="40" height="40" viewBox="0 0 40 40" fill="none" xmlns="http://www.w3.org/2000/svg">
<rect x="0.5" y="0.5" width="39" height="39" rx="19.5" stroke="white"/>
<path d="M24.2271 10H20.8565V23.6232C20.8565 25.2464 19.5601 26.5797 17.9469 26.5797C16.3336 26.5797 15.0372 25.2464 15.0372 23.6232C15.0372 22.029 16.3048 20.7246 17.8605 20.6667V17.2464C14.4323 17.3043 11.6667 20.1159 11.6667 23.6232C11.6667 27.1594 14.4899 30 17.9757 30C21.4615 30 24.2847 27.1304 24.2847 23.6232V16.6377C25.5523 17.5652 27.1079 18.1159 28.75 18.1449V14.7246C26.2149 14.6377 24.2271 12.5507 24.2271 10Z" fill="white"/>
</svg>
