<svg width="83" height="35" viewBox="0 0 83 35" fill="none" xmlns="http://www.w3.org/2000/svg">
<mask id="mask0_2_5374" style="mask-type:luminance" maskUnits="userSpaceOnUse" x="0" y="0" width="83" height="35">
<path d="M83 0H0V35H83V0Z" fill="white"/>
</mask>
<g mask="url(#mask0_2_5374)">
<path fill-rule="evenodd" clip-rule="evenodd" d="M23.1909 0H28.9886V33.063H23.1909L8.69699 13.2255H15.4646L23.1909 23.6504V0ZM0 26.4502H5.79773V33.063H0V26.4502Z" fill="#A19A9A"/>
</g>
<mask id="mask1_2_5374" style="mask-type:luminance" maskUnits="userSpaceOnUse" x="0" y="0" width="83" height="35">
<path d="M83 0H0V35H83V0Z" fill="white"/>
</mask>
<g mask="url(#mask1_2_5374)">
<path d="M37.6848 20.7979V13.2412H38.6907V20.7979H37.6848Z" fill="#A19A9A"/>
</g>
<mask id="mask2_2_5374" style="mask-type:luminance" maskUnits="userSpaceOnUse" x="0" y="0" width="83" height="35">
<path d="M83 0H0V35H83V0Z" fill="white"/>
</mask>
<g mask="url(#mask2_2_5374)">
<path d="M43.2596 20.7816V17.0205C43.2692 16.8929 43.25 16.7652 43.206 16.6485C43.162 16.5317 43.0925 16.4287 43.0045 16.3484C42.8046 16.1961 42.5664 16.1213 42.3265 16.135C42.117 16.135 41.9115 16.1952 41.7276 16.3083C41.5341 16.4287 41.3742 16.6092 41.2663 16.829C41.1407 17.0935 41.08 17.3908 41.0887 17.6908V20.7816H40.1309V15.317H41.0887V16.291C41.2319 15.9544 41.455 15.6708 41.7324 15.4711C42.0155 15.2677 42.3441 15.1628 42.6783 15.1692C42.9382 15.1656 43.1964 15.2185 43.4387 15.3252C43.6698 15.4291 43.8665 15.6134 43.9992 15.8523C44.1527 16.1578 44.2255 16.5071 44.2103 16.8591V20.7779L43.2596 20.7816Z" fill="#A19A9A"/>
</g>
<mask id="mask3_2_5374" style="mask-type:luminance" maskUnits="userSpaceOnUse" x="0" y="0" width="83" height="35">
<path d="M83 0H0V35H83V0Z" fill="white"/>
</mask>
<g mask="url(#mask3_2_5374)">
<path d="M48.8436 20.7816V17.0205C48.8524 16.8929 48.834 16.7652 48.7901 16.6485C48.7453 16.5308 48.6765 16.4287 48.5886 16.3484C48.3895 16.197 48.1536 16.1222 47.9145 16.135C47.705 16.135 47.4996 16.1952 47.3157 16.3083C47.1222 16.4287 46.9622 16.6092 46.8543 16.829C46.7288 17.0935 46.6672 17.3908 46.6768 17.6908V20.7816H45.7189V15.317H46.6768V16.291C46.8207 15.9553 47.043 15.6717 47.3196 15.4711C47.6027 15.2677 47.9321 15.1628 48.2671 15.1692C48.527 15.1665 48.7853 15.2194 49.0275 15.3252C49.2586 15.4291 49.4545 15.6134 49.5872 15.8523C49.7408 16.1578 49.8143 16.5071 49.7983 16.8591V20.7779L48.8436 20.7816Z" fill="#A19A9A"/>
</g>
<mask id="mask4_2_5374" style="mask-type:luminance" maskUnits="userSpaceOnUse" x="0" y="0" width="83" height="35">
<path d="M83 0H0V35H83V0Z" fill="white"/>
</mask>
<g mask="url(#mask4_2_5374)">
<path d="M53.3048 20.9268C52.8954 20.9295 52.4924 20.8201 52.127 20.6085C51.7568 20.3924 51.4505 20.0577 51.2442 19.6454C51.0092 19.1584 50.8932 18.6076 50.91 18.0513C50.8932 17.4996 51.0108 16.9524 51.249 16.4717C51.4601 16.0659 51.7656 15.734 52.1318 15.5151C52.4932 15.2989 52.8962 15.1868 53.3048 15.1895C53.7125 15.1868 54.1155 15.2962 54.4785 15.5078C54.8455 15.7257 55.1518 16.0568 55.3613 16.4645C55.6003 16.9478 55.7171 17.4968 55.7003 18.0504C55.7163 18.604 55.5995 19.1511 55.3613 19.6336C55.1518 20.0449 54.8463 20.3805 54.4785 20.6021C54.1163 20.8192 53.7133 20.9295 53.3048 20.9268ZM53.3048 20.054C53.5486 20.0577 53.7885 19.9883 54.002 19.8534C54.2251 19.7056 54.4002 19.4795 54.5025 19.2095C54.6352 18.8429 54.6968 18.4471 54.6832 18.0513C54.6976 17.6546 54.6345 17.2588 54.4977 16.8931C54.3946 16.625 54.2211 16.4006 54.002 16.2483C53.7909 16.1133 53.5518 16.044 53.3095 16.0477C53.0665 16.044 52.8266 16.1133 52.6139 16.2483C52.3916 16.3979 52.2165 16.624 52.1126 16.8931C51.9759 17.2588 51.9119 17.6546 51.9255 18.0513C51.9119 18.4489 51.9759 18.8438 52.1126 19.2095C52.2165 19.4785 52.3916 19.7038 52.6139 19.8534C52.8242 19.9874 53.0633 20.0567 53.3048 20.054Z" fill="#A19A9A"/>
</g>
<mask id="mask5_2_5374" style="mask-type:luminance" maskUnits="userSpaceOnUse" x="0" y="0" width="83" height="35">
<path d="M83 0H0V35H83V0Z" fill="white"/>
</mask>
<g mask="url(#mask5_2_5374)">
<path d="M57.9415 20.7839L56.1648 15.3193H57.1755L58.454 19.4971L59.6806 15.3202H60.6041L58.8266 20.7848L57.9415 20.7839Z" fill="#A19A9A"/>
</g>
<mask id="mask6_2_5374" style="mask-type:luminance" maskUnits="userSpaceOnUse" x="0" y="0" width="83" height="35">
<path d="M83 0H0V35H83V0Z" fill="white"/>
</mask>
<g mask="url(#mask6_2_5374)">
<path d="M65.0591 20.7841H64.1004V19.9889C63.9453 20.267 63.7366 20.5005 63.4903 20.6719C63.2321 20.8443 62.937 20.9318 62.6372 20.9236C62.3269 20.9373 62.0191 20.858 61.744 20.6938C61.5218 20.557 61.3395 20.3491 61.2195 20.0956C61.1044 19.8511 61.0452 19.5775 61.0476 19.3003C61.0396 19.1115 61.0636 18.9237 61.1188 18.7458C61.1747 18.568 61.2603 18.4047 61.3714 18.2652C61.5977 18.0007 61.88 17.8065 62.191 17.7007C62.5236 17.5803 62.8682 17.5083 63.2161 17.4873L64.1004 17.4317V17.0222C64.1124 16.7477 64.0292 16.4777 63.8693 16.2725C63.7158 16.0856 63.4815 15.9989 63.1673 15.9989C62.9418 15.9789 62.7163 16.0527 62.5348 16.2069C62.3949 16.3428 62.3021 16.5315 62.2742 16.7386H61.3155C61.3403 16.4102 61.4538 16.0993 61.6401 15.8475C61.8224 15.6159 62.0535 15.4426 62.3117 15.345C62.5908 15.2347 62.885 15.18 63.1801 15.1827C63.8341 15.1827 64.3131 15.3505 64.6177 15.6852C64.7704 15.8621 64.8888 16.0719 64.9663 16.3035C65.0439 16.5352 65.0791 16.7823 65.0687 17.0295L65.0591 20.7841ZM62.0351 19.1936C62.0271 19.4189 62.0983 19.6387 62.2318 19.8046C62.3093 19.8894 62.4021 19.9551 62.5036 19.9961C62.6052 20.0372 62.7131 20.0545 62.8203 20.0445C63.0306 20.0427 63.2361 19.9788 63.4192 19.8603C63.6174 19.7344 63.7846 19.5538 63.9053 19.3341C64.0348 19.0978 64.102 18.8233 64.0972 18.5443V18.1631L63.2137 18.2078C62.9202 18.2114 62.6316 18.298 62.3749 18.4604C62.2638 18.5342 62.1734 18.6419 62.1134 18.7714C62.0535 18.9018 62.0263 19.0477 62.0351 19.1936Z" fill="#A19A9A"/>
</g>
<mask id="mask7_2_5374" style="mask-type:luminance" maskUnits="userSpaceOnUse" x="0" y="0" width="83" height="35">
<path d="M83 0H0V35H83V0Z" fill="white"/>
</mask>
<g mask="url(#mask7_2_5374)">
<path d="M67.9917 20.9318C67.6743 20.9336 67.3584 20.8706 67.0594 20.7475C66.7787 20.6354 66.5269 20.4429 66.3286 20.1885C66.1295 19.9231 66.0103 19.5911 65.9895 19.2419H66.9219C66.9746 19.5848 67.1074 19.8173 67.3192 19.9413C67.5431 20.0672 67.7894 20.1301 68.0381 20.1256C68.2715 20.1429 68.5026 20.0654 68.6905 19.9085C68.7673 19.8337 68.8288 19.7398 68.8688 19.634C68.9088 19.5282 68.9264 19.4133 68.9216 19.2975C68.9216 19.1461 68.8728 19.0002 68.7841 18.888C68.6929 18.7649 68.5066 18.6737 68.2244 18.6144L67.2433 18.3791C67.089 18.3508 66.941 18.2879 66.8075 18.194C66.674 18.1001 66.5588 17.9769 66.4669 17.8328C66.2958 17.5483 66.2062 17.209 66.2118 16.8643C66.1982 16.5205 66.291 16.1822 66.4733 15.9077C66.6476 15.6596 66.8763 15.4681 67.1353 15.3532C67.3968 15.2319 67.6775 15.1689 67.9597 15.1689C68.2284 15.1689 68.4946 15.22 68.7489 15.3194C68.9992 15.4143 69.2222 15.5821 69.3965 15.8073C69.5796 16.059 69.682 16.3746 69.686 16.702H68.7929C68.7881 16.5925 68.7609 16.4858 68.7129 16.391C68.6657 16.2962 68.5986 16.215 68.5186 16.1557C68.3427 16.0289 68.138 15.9651 67.9293 15.9715C67.7214 15.9587 67.5175 16.0344 67.3552 16.1831C67.2857 16.2524 67.2305 16.339 67.1945 16.4357C67.1577 16.5324 67.1409 16.6372 67.1441 16.743C67.1433 16.9044 67.1961 17.0604 67.2913 17.1799C67.428 17.3303 67.6031 17.427 67.7918 17.4535L68.7241 17.6559C69.0383 17.7143 69.3286 17.8848 69.5533 18.142C69.6628 18.2779 69.7476 18.4384 69.8027 18.6117C69.8579 18.7859 69.8819 18.971 69.8731 19.1552C69.8763 19.3942 69.8339 19.6304 69.7476 19.8483C69.662 20.0663 69.5357 20.2596 69.3766 20.4156C69.0503 20.7603 68.5874 20.9318 67.9917 20.9318Z" fill="#A19A9A"/>
</g>
<mask id="mask8_2_5374" style="mask-type:luminance" maskUnits="userSpaceOnUse" x="0" y="0" width="83" height="35">
<path d="M83 0H0V35H83V0Z" fill="white"/>
</mask>
<g mask="url(#mask8_2_5374)">
<path d="M71.8706 15.3156V21.0538C71.8706 21.6512 71.7315 22.0898 71.4541 22.3698C71.1534 22.6589 70.7688 22.8085 70.3762 22.7893H70.0916V21.86H70.3467C70.4258 21.8691 70.5058 21.8573 70.5809 21.8263C70.6553 21.7952 70.7233 21.7451 70.7792 21.6803C70.8728 21.5262 70.9176 21.3402 70.9064 21.1532V15.3156H71.8706ZM70.8208 14.2523V13.043H71.9594V14.2523H70.8208Z" fill="#A19A9A"/>
</g>
<mask id="mask9_2_5374" style="mask-type:luminance" maskUnits="userSpaceOnUse" x="0" y="0" width="83" height="35">
<path d="M83 0H0V35H83V0Z" fill="white"/>
</mask>
<g mask="url(#mask9_2_5374)">
<path d="M75.3548 20.9268C74.9454 20.9295 74.5424 20.821 74.177 20.6085C73.8068 20.3914 73.4998 20.0567 73.2935 19.6454C73.0584 19.1575 72.9433 18.6067 72.9601 18.0513C72.9433 17.4996 73.06 16.9533 73.2983 16.4717C73.5094 16.0659 73.8156 15.7349 74.1818 15.5151C74.5432 15.298 74.9462 15.1868 75.3548 15.1895C75.7626 15.1868 76.1648 15.2962 76.5278 15.5078C76.8956 15.7257 77.2018 16.0568 77.4121 16.4645C77.6504 16.9487 77.7679 17.4996 77.7495 18.0549C77.7655 18.6076 77.6488 19.1557 77.4121 19.6381C77.2018 20.0485 76.8964 20.3841 76.5278 20.6067C76.1656 20.821 75.7626 20.9313 75.3548 20.9268ZM75.3548 20.054C75.5987 20.0577 75.8385 19.9883 76.052 19.8534C76.2711 19.7029 76.443 19.4776 76.543 19.2095C76.6765 18.8429 76.7389 18.448 76.7253 18.0513C76.7397 17.6537 76.6757 17.2588 76.5382 16.8931C76.4358 16.625 76.2631 16.3997 76.0432 16.2483C75.8321 16.1133 75.5931 16.044 75.3508 16.0477C75.1069 16.044 74.867 16.1133 74.6536 16.2483C74.4321 16.3988 74.257 16.624 74.153 16.8931C74.0163 17.2588 73.9531 17.6546 73.9675 18.0513C73.9531 18.448 74.0171 18.8438 74.153 19.2095C74.257 19.4786 74.4321 19.7029 74.6536 19.8534C74.8678 19.9883 75.1093 20.0577 75.3548 20.054Z" fill="#A19A9A"/>
</g>
<mask id="mask10_2_5374" style="mask-type:luminance" maskUnits="userSpaceOnUse" x="0" y="0" width="83" height="35">
<path d="M83 0H0V35H83V0Z" fill="white"/>
</mask>
<g mask="url(#mask10_2_5374)">
<path d="M82.0526 20.7816V17.0205C82.0614 16.8929 82.043 16.7652 81.999 16.6485C81.9542 16.5308 81.8855 16.4287 81.7975 16.3484C81.5984 16.1961 81.3609 16.1222 81.1211 16.135C80.9116 16.135 80.7061 16.1952 80.5222 16.3083C80.3287 16.4287 80.1688 16.6092 80.0608 16.829C79.9361 17.0935 79.8745 17.3908 79.8841 17.6908V20.7816H78.9254V15.317H79.8841V16.291C80.028 15.9553 80.2503 15.6717 80.527 15.4711C80.8108 15.2677 81.1395 15.1628 81.4745 15.1692C81.7343 15.1665 81.9918 15.2194 82.2349 15.3252C82.4652 15.4291 82.6611 15.6134 82.7946 15.8523C82.9481 16.1578 83.0209 16.5071 83.0057 16.8591V20.7779L82.0526 20.7816Z" fill="#A19A9A"/>
</g>
<mask id="mask11_2_5374" style="mask-type:luminance" maskUnits="userSpaceOnUse" x="0" y="0" width="83" height="35">
<path d="M83 0H0V35H83V0Z" fill="white"/>
</mask>
<g mask="url(#mask11_2_5374)">
<path d="M37.6848 33.0684V25.5117H38.6907L42.0449 31.4113V25.5117H42.9484V33.0684H41.9569L38.5907 27.146V33.0684H37.6848Z" fill="#A19A9A"/>
</g>
<mask id="mask12_2_5374" style="mask-type:luminance" maskUnits="userSpaceOnUse" x="0" y="0" width="83" height="35">
<path d="M83 0H0V35H83V0Z" fill="white"/>
</mask>
<g mask="url(#mask12_2_5374)">
<path d="M46.3905 33.2078C45.9803 33.2105 45.5766 33.1011 45.212 32.8877C44.8426 32.6733 44.5363 32.3405 44.3292 31.931C44.0925 31.4413 43.9766 30.8877 43.995 30.3286C43.9782 29.7769 44.0957 29.2306 44.334 28.7491C44.5451 28.3423 44.8513 28.0113 45.2183 27.7924C45.5798 27.5754 45.9827 27.4641 46.3913 27.4668C46.7991 27.4641 47.2013 27.5735 47.5643 27.787C47.9313 28.004 48.2383 28.336 48.447 28.7436C48.6701 29.2343 48.7861 29.7778 48.7861 30.3305C48.7861 30.8831 48.6701 31.4267 48.447 31.9173C48.2383 32.3286 47.9321 32.6642 47.5643 32.8858C47.2013 33.1011 46.7983 33.2114 46.3905 33.2078ZM46.3905 32.3332C46.6344 32.3368 46.8743 32.2675 47.0878 32.1325C47.3084 31.983 47.4811 31.7577 47.5819 31.4887C47.7154 31.1221 47.7778 30.7272 47.7642 30.3305C47.7778 29.9328 47.7146 29.538 47.5771 29.1723C47.474 28.9041 47.3012 28.6798 47.0814 28.5275C46.8703 28.3925 46.632 28.3232 46.3905 28.3268C46.1467 28.3232 45.9068 28.3925 45.6933 28.5275C45.4718 28.678 45.2967 28.9032 45.1928 29.1723C44.9425 29.9201 44.9425 30.7472 45.1928 31.4951C45.2967 31.7641 45.4718 31.9894 45.6933 32.1389C45.9068 32.2712 46.1475 32.3387 46.3905 32.3332Z" fill="#A19A9A"/>
</g>
<mask id="mask13_2_5374" style="mask-type:luminance" maskUnits="userSpaceOnUse" x="0" y="0" width="83" height="35">
<path d="M83 0H0V35H83V0Z" fill="white"/>
</mask>
<g mask="url(#mask13_2_5374)">
<path d="M50.7891 30.3295V33.0618H49.8304V27.5973H50.7891V28.8859C50.8635 28.6479 50.9642 28.4226 51.0881 28.2138C51.2153 27.9976 51.3832 27.8161 51.5791 27.6821C51.795 27.5389 52.0412 27.4668 52.2907 27.4741V28.605C51.8325 28.605 51.4671 28.7463 51.1961 29.03C50.925 29.3136 50.7891 29.7468 50.7891 30.3295Z" fill="#A19A9A"/>
</g>
<mask id="mask14_2_5374" style="mask-type:luminance" maskUnits="userSpaceOnUse" x="0" y="0" width="83" height="35">
<path d="M83 0H0V35H83V0Z" fill="white"/>
</mask>
<g mask="url(#mask14_2_5374)">
<path d="M54.9716 31.038C54.6486 31.0435 54.3296 30.9633 54.0393 30.8027C53.965 30.8702 53.9018 30.9514 53.8522 31.0435C53.8051 31.1365 53.7811 31.2432 53.7835 31.3509C53.7835 31.5679 53.9242 31.6874 54.2048 31.7084L56.0015 31.8451C56.4461 31.8752 56.7851 32.0057 57.0178 32.2355C57.1337 32.3531 57.2248 32.4981 57.2848 32.6614C57.3448 32.8246 57.3728 33.0006 57.3648 33.1766C57.3704 33.5323 57.2624 33.8789 57.0609 34.1506C56.8394 34.4416 56.5556 34.6613 56.2366 34.789C55.8592 34.9441 55.4602 35.0198 55.0588 35.0134C54.3576 35.0134 53.8019 34.8811 53.3901 34.6157C52.9783 34.3504 52.7728 33.9901 52.772 33.535C52.772 33.2906 52.8384 33.0517 52.9623 32.852C53.0982 32.6322 53.2789 32.4534 53.4884 32.3312C53.3277 32.2619 53.1886 32.1415 53.0862 31.9847C53.0111 31.8652 52.9695 31.722 52.9663 31.5752C52.9655 31.3472 53.0327 31.1265 53.1566 30.9478C53.2781 30.769 53.4189 30.6076 53.5748 30.4671C53.4301 30.3112 53.3117 30.1251 53.2262 29.9209C53.1374 29.7138 53.0918 29.4859 53.0934 29.2551C53.087 28.9177 53.179 28.5876 53.3533 28.3149C53.5316 28.0413 53.7683 27.826 54.0409 27.6874C54.332 27.5369 54.6486 27.4603 54.9684 27.4631C55.1675 27.4622 55.365 27.4904 55.5577 27.5461C55.7256 27.5926 55.8872 27.6655 56.0367 27.7649C56.1574 27.5005 56.3461 27.2834 56.5764 27.143C56.8195 26.9898 57.0937 26.9104 57.372 26.9132V27.775C57.1849 27.7713 56.9986 27.8078 56.8219 27.8817C56.6803 27.9364 56.5564 28.0349 56.462 28.1671C56.5868 28.2939 56.6827 28.4535 56.7411 28.6313C56.8171 28.8383 56.8554 29.0609 56.8538 29.2861C56.8562 29.6071 56.7731 29.9218 56.614 30.1881C56.4493 30.4608 56.2222 30.676 55.9567 30.81C55.6481 30.9678 55.3115 31.0453 54.9716 31.038ZM53.6539 33.3882C53.6547 33.5214 53.6875 33.6527 53.7491 33.7667C53.8107 33.8807 53.8978 33.9728 54.0026 34.033C54.2352 34.1935 54.587 34.2738 55.058 34.2738C55.5225 34.2738 55.8816 34.1944 56.1358 34.0385C56.2502 33.981 56.3469 33.8862 56.4149 33.7676C56.4836 33.6481 56.5188 33.5086 56.5188 33.3663C56.5204 33.2925 56.506 33.2186 56.4764 33.1529C56.4477 33.0864 56.4045 33.0289 56.3517 32.986C56.1798 32.8702 55.9815 32.8128 55.7816 32.8191L53.9554 32.6823C53.857 32.7735 53.7755 32.8857 53.7163 33.0134C53.6707 33.132 53.6499 33.2605 53.6555 33.3891H53.6539V33.3882ZM54.9716 30.2464C55.2275 30.2592 55.4786 30.1653 55.6785 29.9829C55.7696 29.8944 55.8416 29.7841 55.8895 29.6591C55.9375 29.5342 55.9591 29.3983 55.9535 29.2615C55.9607 29.122 55.9399 28.9833 55.8919 28.8548C55.844 28.7262 55.7712 28.6131 55.6777 28.5219C55.4762 28.3441 55.2259 28.2529 54.9708 28.2647C54.7198 28.2529 54.4743 28.3459 54.2792 28.5274C54.1889 28.6186 54.1169 28.7316 54.0697 28.8584C54.0225 28.9852 54.0017 29.1229 54.0081 29.2606C54.0017 29.3965 54.0233 29.5324 54.0705 29.6573C54.1177 29.7822 54.188 29.8935 54.2784 29.982C54.4727 30.1625 54.719 30.2556 54.97 30.2428V30.2464H54.9716Z" fill="#A19A9A"/>
</g>
<mask id="mask15_2_5374" style="mask-type:luminance" maskUnits="userSpaceOnUse" x="0" y="0" width="83" height="35">
<path d="M83 0H0V35H83V0Z" fill="white"/>
</mask>
<g mask="url(#mask15_2_5374)">
<path d="M60.2593 33.2073C59.8259 33.2155 59.3981 33.0961 59.0167 32.8598C58.6521 32.6264 58.3547 32.2753 58.1628 31.8512C57.9477 31.3624 57.8422 30.8197 57.8557 30.2735C57.8422 29.7381 57.9573 29.2092 58.19 28.745C58.3931 28.3528 58.6833 28.0282 59.0303 27.8029C59.3773 27.5777 59.7699 27.4591 60.1697 27.46C60.5367 27.4573 60.8973 27.5722 61.2092 27.7911C61.5386 28.0218 61.8081 28.3474 61.9904 28.7368C62.1998 29.1964 62.303 29.709 62.2894 30.226V30.5498H58.8632C58.8672 30.91 58.9448 31.2648 59.0895 31.5858C59.2022 31.8311 59.3765 32.0336 59.5884 32.1677C59.7907 32.2917 60.017 32.3555 60.2457 32.3537C60.5015 32.3528 60.751 32.2607 60.9581 32.0901C61.1612 31.9387 61.3067 31.7053 61.3651 31.4353H62.2574C62.211 31.7855 62.0783 32.1129 61.8752 32.3811C61.6729 32.6446 61.4243 32.8553 61.1452 32.9994C60.8661 33.1435 60.5623 33.2173 60.2561 33.2164V33.2073H60.2593ZM60.1801 28.3154C59.9978 28.3182 59.8179 28.362 59.6508 28.444C59.4589 28.5389 59.2934 28.6921 59.1718 28.8863C59.0159 29.1499 58.9216 29.4536 58.8976 29.7701H61.2931C61.2475 29.2548 61.1236 28.8836 60.9205 28.6565C60.8238 28.5453 60.7086 28.4577 60.5815 28.3994C60.4536 28.3401 60.3168 28.3118 60.1801 28.3154Z" fill="#A19A9A"/>
</g>
</svg>
