<svg width="81" height="30" viewBox="0 0 81 30" fill="none" xmlns="http://www.w3.org/2000/svg">
<path d="M0 0H1.20358V16.4165L3.17308 14.5564L16.0295 2.18833H17.7802L0.109416 19.0425L0 0Z" fill="#9D9D9D"/>
<path d="M5.47266 0.0551758H26.973L12.0376 14.3887L27.0277 28.7223H25.4412L10.4511 14.3887L24.1829 1.14934H6.62153V5.47129V9.90265L5.47266 10.9421V0.0551758Z" fill="#9D9D9D"/>
<path d="M7.71387 17.0151L19.9685 28.7774H18.3273L7.71387 18.547L1.31301 24.6743L1.2583 28.7774H0.164139V24.2366L7.71387 17.0151Z" fill="#9D9D9D"/>
<path d="M5.41602 22.1569L6.6196 21.0081V27.6825H15.7559L16.85 28.7219H5.41602V22.1569Z" fill="#9D9D9D"/>
<path d="M29.8597 3.50736H30.6782V5.70225L31.7198 3.50736H32.5383L31.5636 5.41952L32.5531 8.71558H31.6975L31.0055 6.3942L30.6782 7.05639V8.71558H29.8597V3.50736ZM34.1321 3.50736H35.3449C35.7665 3.50736 36.074 3.60656 36.2675 3.80497C36.4609 3.99842 36.5577 4.29851 36.5577 4.70525V5.02518C36.5577 5.56584 36.3791 5.9081 36.0219 6.05194V6.06682C36.2204 6.12635 36.3592 6.24787 36.4386 6.4314C36.5229 6.61493 36.5651 6.86046 36.5651 7.16799V8.08315C36.5651 8.23196 36.5701 8.35348 36.58 8.44772C36.5899 8.53701 36.6147 8.62629 36.6544 8.71558H35.8211C35.7913 8.63125 35.7715 8.55189 35.7615 8.47749C35.7516 8.40308 35.7467 8.26916 35.7467 8.07571V7.12335C35.7467 6.88526 35.707 6.71909 35.6276 6.62485C35.5532 6.5306 35.4218 6.48348 35.2333 6.48348H34.9505V8.71558H34.1321V3.50736ZM35.2482 5.73945C35.4118 5.73945 35.5334 5.69729 35.6127 5.61296C35.6971 5.52864 35.7392 5.38728 35.7392 5.18887V4.78709C35.7392 4.5986 35.7045 4.4622 35.6351 4.37787C35.5706 4.29355 35.4664 4.25139 35.3226 4.25139H34.9505V5.73945H35.2482ZM38.3246 3.50736H39.143V8.71558H38.3246V3.50736ZM42.0115 8.78998C41.6147 8.78998 41.3146 8.67837 41.1112 8.45517C40.9079 8.227 40.8062 7.9021 40.8062 7.48048V7.18287H41.58V7.54001C41.58 7.8773 41.7213 8.04595 42.0041 8.04595C42.143 8.04595 42.2471 8.00627 42.3166 7.9269C42.391 7.84258 42.4282 7.70865 42.4282 7.52513C42.4282 7.30688 42.3786 7.11591 42.2794 6.95222C42.1802 6.78357 41.9966 6.58269 41.7288 6.34956C41.3915 6.05194 41.1559 5.78409 41.022 5.546C40.888 5.30295 40.8211 5.03014 40.8211 4.72757C40.8211 4.31587 40.9252 3.99842 41.1336 3.77521C41.3419 3.54704 41.6445 3.43295 42.0413 3.43295C42.4331 3.43295 42.7283 3.54704 42.9267 3.77521C43.13 3.99842 43.2317 4.32083 43.2317 4.74245V4.95822H42.4579V4.69037C42.4579 4.5118 42.4232 4.38283 42.3538 4.30347C42.2843 4.21915 42.1826 4.17698 42.0487 4.17698C41.7759 4.17698 41.6395 4.34315 41.6395 4.67548C41.6395 4.86397 41.6891 5.04006 41.7883 5.20375C41.8925 5.36743 42.0785 5.56584 42.3463 5.79897C42.6886 6.09659 42.9242 6.36692 43.0532 6.60997C43.1821 6.85302 43.2466 7.13823 43.2466 7.4656C43.2466 7.89218 43.14 8.21956 42.9267 8.44772C42.7183 8.67589 42.4133 8.78998 42.0115 8.78998ZM45.5474 4.25139H44.6917V3.50736H47.2214V4.25139H46.3658V8.71558H45.5474V4.25139ZM48.8093 3.50736H49.6277V8.71558H48.8093V3.50736ZM52.0647 3.50736H53.1733L54.0215 8.71558H53.2031L53.0543 7.68137V7.69625H52.1242L51.9754 8.71558H51.2165L52.0647 3.50736ZM52.9576 6.98942L52.593 4.41507H52.5781L52.221 6.98942H52.9576ZM55.6102 3.50736H56.637L57.4331 6.62485H57.448V3.50736H58.1771V8.71558H57.3364L56.3542 4.91358H56.3394V8.71558H55.6102V3.50736ZM61.041 8.78998C60.6442 8.78998 60.3441 8.67837 60.1407 8.45517C59.9373 8.227 59.8357 7.9021 59.8357 7.48048V7.18287H60.6095V7.54001C60.6095 7.8773 60.7508 8.04595 61.0336 8.04595C61.1724 8.04595 61.2766 8.00627 61.346 7.9269C61.4205 7.84258 61.4577 7.70865 61.4577 7.52513C61.4577 7.30688 61.4081 7.11591 61.3088 6.95222C61.2096 6.78357 61.0261 6.58269 60.7583 6.34956C60.421 6.05194 60.1854 5.78409 60.0514 5.546C59.9175 5.30295 59.8505 5.03014 59.8505 4.72757C59.8505 4.31587 59.9547 3.99842 60.163 3.77521C60.3714 3.54704 60.6739 3.43295 61.0708 3.43295C61.4626 3.43295 61.7577 3.54704 61.9562 3.77521C62.1595 3.99842 62.2612 4.32083 62.2612 4.74245V4.95822H61.4874V4.69037C61.4874 4.5118 61.4527 4.38283 61.3833 4.30347C61.3138 4.21915 61.2121 4.17698 61.0782 4.17698C60.8054 4.17698 60.669 4.34315 60.669 4.67548C60.669 4.86397 60.7186 5.04006 60.8178 5.20375C60.922 5.36743 61.108 5.56584 61.3758 5.79897C61.7181 6.09659 61.9537 6.36692 62.0826 6.60997C62.2116 6.85302 62.2761 7.13823 62.2761 7.4656C62.2761 7.89218 62.1694 8.21956 61.9562 8.44772C61.7478 8.67589 61.4428 8.78998 61.041 8.78998ZM64.5694 3.50736H65.678L66.5262 8.71558H65.7078L65.559 7.68137V7.69625H64.6289L64.4801 8.71558H63.7212L64.5694 3.50736ZM65.4622 6.98942L65.0977 4.41507H65.0828L64.7256 6.98942H65.4622ZM68.1149 3.50736H69.1416L69.9378 6.62485H69.9526V3.50736H70.6818V8.71558H69.841L68.8589 4.91358H68.844V8.71558H68.1149V3.50736ZM72.4817 3.50736H73.7317C74.1384 3.50736 74.4435 3.61648 74.6468 3.83473C74.8502 4.05298 74.9519 4.37291 74.9519 4.79453V7.4284C74.9519 7.85002 74.8502 8.16995 74.6468 8.3882C74.4435 8.60645 74.1384 8.71558 73.7317 8.71558H72.4817V3.50736ZM73.7168 7.97154C73.8507 7.97154 73.9524 7.93186 74.0218 7.8525C74.0962 7.77314 74.1335 7.64417 74.1335 7.4656V4.75733C74.1335 4.57876 74.0962 4.4498 74.0218 4.37043C73.9524 4.29107 73.8507 4.25139 73.7168 4.25139H73.3001V7.97154H73.7168Z" fill="#9D9D9D"/>
<path d="M29.8597 12.9012H32.0249V13.6452H30.6782V15.096H31.7347V15.8401H30.6782V18.1094H29.8597V12.9012ZM33.609 12.9012H34.4274V17.3653H35.7741V18.1094H33.609V12.9012ZM37.3582 12.9012H39.5903V13.6452H38.1766V15.0216H39.3001V15.7657H38.1766V17.3653H39.5903V18.1094H37.3582V12.9012ZM41.2527 12.9012H42.4655C42.8871 12.9012 43.1946 13.0004 43.3881 13.1988C43.5815 13.3922 43.6783 13.6923 43.6783 14.099V14.419C43.6783 14.9596 43.4997 15.3019 43.1426 15.4457V15.4606C43.341 15.5201 43.4799 15.6417 43.5592 15.8252C43.6435 16.0087 43.6857 16.2543 43.6857 16.5618V17.4769C43.6857 17.6258 43.6907 17.7473 43.7006 17.8415C43.7105 17.9308 43.7353 18.0201 43.775 18.1094H42.9417C42.9119 18.0251 42.8921 17.9457 42.8822 17.8713C42.8722 17.7969 42.8673 17.663 42.8673 17.4695V16.5171C42.8673 16.2791 42.8276 16.1129 42.7482 16.0186C42.6738 15.9244 42.5424 15.8773 42.3539 15.8773H42.0712V18.1094H41.2527V12.9012ZM42.3688 15.1332C42.5325 15.1332 42.654 15.0911 42.7333 15.0068C42.8177 14.9224 42.8598 14.7811 42.8598 14.5827V14.1809C42.8598 13.9924 42.8251 13.856 42.7557 13.7717C42.6912 13.6873 42.587 13.6452 42.4432 13.6452H42.0712V15.1332H42.3688ZM45.4452 12.9012H47.6773V13.6452H46.2636V15.0216H47.3871V15.7657H46.2636V17.3653H47.6773V18.1094H45.4452V12.9012ZM49.3397 12.9012H50.1581V15.096L51.1998 12.9012H52.0182L51.0435 14.8133L52.0331 18.1094H51.1775L50.4855 15.788L50.1581 16.4502V18.1094H49.3397V12.9012ZM54.8025 18.1838C54.4057 18.1838 54.1031 18.0722 53.8948 17.849C53.6865 17.6208 53.5823 17.2959 53.5823 16.8743V12.9012H54.4007V16.9338C54.4007 17.1124 54.4355 17.2413 54.5049 17.3207C54.5793 17.4001 54.6835 17.4397 54.8174 17.4397C54.9513 17.4397 55.053 17.4001 55.1225 17.3207C55.1969 17.2413 55.2341 17.1124 55.2341 16.9338V12.9012H56.0227V16.8743C56.0227 17.2959 55.9186 17.6208 55.7102 17.849C55.5019 18.0722 55.1993 18.1838 54.8025 18.1838ZM57.7972 12.9012H58.6157V17.3653H59.9624V18.1094H57.7972V12.9012ZM62.1863 13.6452H61.3307V12.9012H63.8604V13.6452H63.0048V18.1094H62.1863V13.6452ZM66.6387 18.1838C66.2419 18.1838 65.9393 18.0722 65.731 17.849C65.5227 17.6208 65.4185 17.2959 65.4185 16.8743V12.9012H66.2369V16.9338C66.2369 17.1124 66.2717 17.2413 66.3411 17.3207C66.4155 17.4001 66.5197 17.4397 66.6536 17.4397C66.7875 17.4397 66.8892 17.4001 66.9587 17.3207C67.0331 17.2413 67.0703 17.1124 67.0703 16.9338V12.9012H67.8589V16.8743C67.8589 17.2959 67.7548 17.6208 67.5464 17.849C67.3381 18.0722 67.0355 18.1838 66.6387 18.1838ZM69.6335 12.9012H70.8462C71.2678 12.9012 71.5754 13.0004 71.7688 13.1988C71.9623 13.3922 72.059 13.6923 72.059 14.099V14.419C72.059 14.9596 71.8804 15.3019 71.5233 15.4457V15.4606C71.7217 15.5201 71.8606 15.6417 71.94 15.8252C72.0243 16.0087 72.0664 16.2543 72.0664 16.5618V17.4769C72.0664 17.6258 72.0714 17.7473 72.0813 17.8415C72.0912 17.9308 72.116 18.0201 72.1557 18.1094H71.3224C71.2926 18.0251 71.2728 17.9457 71.2629 17.8713C71.253 17.7969 71.248 17.663 71.248 17.4695V16.5171C71.248 16.2791 71.2083 16.1129 71.129 16.0186C71.0546 15.9244 70.9231 15.8773 70.7346 15.8773H70.4519V18.1094H69.6335V12.9012ZM70.7495 15.1332C70.9132 15.1332 71.0347 15.0911 71.1141 15.0068C71.1984 14.9224 71.2406 14.7811 71.2406 14.5827V14.1809C71.2406 13.9924 71.2058 13.856 71.1364 13.7717C71.0719 13.6873 70.9677 13.6452 70.8239 13.6452H70.4519V15.1332H70.7495ZM73.8259 12.9012H76.058V13.6452H74.6443V15.0216H75.7678V15.7657H74.6443V17.3653H76.058V18.1094H73.8259V12.9012ZM77.7204 12.9012H78.5389V17.3653H79.8856V18.1094H77.7204V12.9012ZM29.8597 21.9012H30.6782V26.3653H32.0249V27.1094H29.8597V21.9012ZM34.3604 24.8922L33.3709 21.9012H34.2414L34.7994 23.8133H34.8143L35.3723 21.9012H36.1684L35.1789 24.8922V27.1094H34.3604V24.8922ZM37.7287 21.9012H38.9787C39.3855 21.9012 39.6905 22.0103 39.8939 22.2285C40.0972 22.4468 40.1989 22.7667 40.1989 23.1883V25.8222C40.1989 26.2438 40.0972 26.5638 39.8939 26.782C39.6905 27.0003 39.3855 27.1094 38.9787 27.1094H37.7287V21.9012ZM38.9638 26.3653C39.0978 26.3653 39.1994 26.3257 39.2689 26.2463C39.3433 26.1669 39.3805 26.038 39.3805 25.8594V23.1511C39.3805 22.9726 39.3433 22.8436 39.2689 22.7642C39.1994 22.6849 39.0978 22.6452 38.9638 22.6452H38.5472V26.3653H38.9638Z" fill="#9D9D9D"/>
</svg>
