<svg width="30" height="30" viewBox="0 0 30 30" fill="none" xmlns="http://www.w3.org/2000/svg">
<g clip-path="url(#clip0_2_5516)">
<path d="M15 30C23.2843 30 30 23.2843 30 15C30 6.71573 23.2843 0 15 0C6.71573 0 0 6.71573 0 15C0 23.2843 6.71573 30 15 30Z" fill="url(#paint0_linear_2_5516)"/>
<path d="M8.4852 16.1578C8.4852 14.8694 9.52969 13.825 10.818 13.825C12.1064 13.825 13.1509 14.8695 13.1509 16.1578C13.1509 17.4462 12.1064 18.4907 10.818 18.4907C9.52969 18.4907 8.4852 17.4462 8.4852 16.1578ZM13.1434 18.5944C12.5382 19.1722 11.7189 19.5275 10.8181 19.5275C9.91734 19.5275 9.09797 19.1722 8.49281 18.5944C7.09512 19.4013 6.15234 20.9115 6.15234 22.638V23.3292C6.15234 23.6155 6.38443 23.8477 6.67078 23.8477H14.9654C15.2517 23.8477 15.4839 23.6156 15.4839 23.3292V22.638C15.4839 20.9115 14.5411 19.4013 13.1434 18.5944ZM19.7003 10.1269C19.7003 9.841 19.4678 9.60844 19.1819 9.60844H18.6635V10.6453H19.1819C19.4678 10.6453 19.7003 10.4128 19.7003 10.1269ZM23.8477 11.1637C23.8477 13.87 21.6911 16.0821 19.0064 16.1722L16.7184 17.8066C16.3753 18.0517 15.8987 17.8064 15.8987 17.3847V15.2195C14.5949 14.2762 13.825 12.7806 13.825 11.1637C13.825 8.40041 16.073 6.15234 18.8363 6.15234C21.5996 6.15234 23.8477 8.40041 23.8477 11.1637ZM21.0827 12.2006C21.0827 11.7036 20.8481 11.2606 20.4841 10.9757C20.6438 10.7314 20.7371 10.4399 20.7371 10.1269C20.7371 9.32771 20.1312 8.66771 19.3546 8.58146V8.39883C19.3546 8.11254 19.1225 7.88039 18.8362 7.88039C18.5498 7.88039 18.3178 8.11248 18.3178 8.39883V8.57162H17.4537C17.1674 8.57162 16.9353 8.80371 16.9353 9.09006C16.9353 9.37641 17.1674 9.6085 17.4537 9.6085H17.6265V12.719H17.4537C17.1674 12.719 16.9353 12.9511 16.9353 13.2374C16.9353 13.5238 17.1674 13.7559 17.4537 13.7559H18.3178V13.9287C18.3178 14.215 18.5498 14.4471 18.8362 14.4471C19.1225 14.4471 19.3546 14.215 19.3546 13.9287V13.7559H19.5274C20.3851 13.7558 21.0827 13.0581 21.0827 12.2006ZM19.5275 11.6821H18.6635V12.7189H19.5275C19.8134 12.7189 20.046 12.4864 20.046 12.2005C20.046 11.9146 19.8134 11.6821 19.5275 11.6821Z" fill="url(#paint1_linear_2_5516)"/>
</g>
<defs>
<linearGradient id="paint0_linear_2_5516" x1="4.39336" y1="4.39336" x2="25.6066" y2="25.6066" gradientUnits="userSpaceOnUse">
<stop stop-color="#F3F3F3"/>
<stop offset="1" stop-color="#DADADA"/>
</linearGradient>
<linearGradient id="paint1_linear_2_5516" x1="8.55816" y1="3.50271" x2="24.9397" y2="15.8961" gradientUnits="userSpaceOnUse">
<stop stop-color="#8B8B8B"/>
<stop offset="1" stop-color="#818181"/>
</linearGradient>
<clipPath id="clip0_2_5516">
<rect width="30" height="30" fill="white"/>
</clipPath>
</defs>
</svg>
