<svg width="30" height="30" viewBox="0 0 30 30" fill="none" xmlns="http://www.w3.org/2000/svg">
<g style="mix-blend-mode:luminosity" clip-path="url(#clip0_2_5462)">
<path d="M15 30C23.2843 30 30 23.2843 30 15C30 6.71573 23.2843 0 15 0C6.71573 0 0 6.71573 0 15C0 23.2843 6.71573 30 15 30Z" fill="url(#paint0_linear_2_5462)"/>
<path d="M17.0818 18.6431C17.0818 17.495 16.1481 16.5613 15 16.5613C13.8519 16.5613 12.9182 17.495 12.9182 18.6431C12.9182 19.7913 13.8519 20.725 15 20.725C16.1481 20.725 17.0818 19.7913 17.0818 18.6431ZM15 20.725C13.5652 20.725 12.3977 21.8924 12.3977 23.3272C12.3977 23.6149 12.6305 23.8477 12.9182 23.8477H17.0818C17.3695 23.8477 17.6022 23.6149 17.6022 23.3272C17.6023 21.8924 16.4348 20.725 15 20.725ZM10.8364 18.6431C10.8364 17.495 9.90275 16.5613 8.75455 16.5613C7.60641 16.5613 6.67277 17.495 6.67277 18.6431C6.67277 19.7913 7.60646 20.725 8.75455 20.725C9.90275 20.725 10.8364 19.7913 10.8364 18.6431ZM8.75461 20.725C7.31982 20.725 6.15234 21.8924 6.15234 23.3272C6.15234 23.6149 6.38514 23.8477 6.67277 23.8477H10.8364C11.1241 23.8477 11.3568 23.6149 11.3568 23.3272C11.3568 21.8924 10.1894 20.725 8.75461 20.725ZM23.3272 18.6431C23.3272 17.495 22.3935 16.5613 21.2454 16.5613C20.0973 16.5613 19.1636 17.495 19.1636 18.6431C19.1636 19.7913 20.0972 20.725 21.2454 20.725C22.3935 20.725 23.3272 19.7913 23.3272 18.6431ZM21.2454 20.725C19.8107 20.725 18.6431 21.8924 18.6431 23.3272C18.6431 23.6149 18.8759 23.8477 19.1636 23.8477H23.3272C23.6149 23.8477 23.8476 23.6149 23.8476 23.3272C23.8477 21.8924 22.6802 20.725 21.2454 20.725ZM19.684 13.9591C19.684 14.2465 19.9171 14.4795 20.2045 14.4795C20.4919 14.4795 20.7249 14.2465 20.7249 13.9591C20.7249 13.6716 20.4919 13.4387 20.2045 13.4387C19.9171 13.4387 19.684 13.6717 19.684 13.9591ZM15.5204 15C15.5204 14.7125 15.2874 14.4796 15 14.4796C14.7126 14.4796 14.4796 14.7126 14.4796 15C14.4796 15.2874 14.7126 15.5204 15 15.5204C15.2874 15.5204 15.5204 15.2875 15.5204 15ZM10.316 13.9591C10.316 13.6716 10.0829 13.4387 9.79553 13.4387C9.50813 13.4387 9.2751 13.6717 9.2751 13.9591C9.2751 14.2465 9.50813 14.4795 9.79553 14.4795C10.0829 14.4795 10.316 14.2465 10.316 13.9591ZM20.725 9.79547C20.725 8.18332 19.2155 6.89186 17.5901 7.25268C16.9044 6.54926 15.9784 6.15234 15 6.15234C14.0216 6.15234 13.0956 6.54926 12.4099 7.25268C10.7861 6.89285 9.27504 8.18385 9.27504 9.79547C9.27504 11.4077 10.7851 12.6986 12.4099 12.3383C13.0955 13.0417 14.0216 13.4387 15 13.4387C15.9784 13.4387 16.9044 13.0417 17.5901 12.3383C19.2165 12.6997 20.725 11.4082 20.725 9.79547Z" fill="url(#paint1_linear_2_5462)"/>
</g>
<defs>
<linearGradient id="paint0_linear_2_5462" x1="15" y1="30" x2="15" y2="0" gradientUnits="userSpaceOnUse">
<stop stop-color="#ADDCFF"/>
<stop offset="0.5028" stop-color="#EAF6FF"/>
<stop offset="1" stop-color="#EAF6FF"/>
</linearGradient>
<linearGradient id="paint1_linear_2_5462" x1="15" y1="23.8477" x2="15" y2="6.15234" gradientUnits="userSpaceOnUse">
<stop stop-color="#00C0FF"/>
<stop offset="1" stop-color="#5558FF"/>
</linearGradient>
<clipPath id="clip0_2_5462">
<rect width="30" height="30" fill="white"/>
</clipPath>
</defs>
</svg>
