<svg width="84" height="129" viewBox="0 0 84 129" fill="none" xmlns="http://www.w3.org/2000/svg">
<g clip-path="url(#clip0_2_5455)" filter="url(#filter0_dddd_2_5455)">
<path d="M42 35C50.2843 35 57 28.2843 57 20C57 11.7157 50.2843 5 42 5C33.7157 5 27 11.7157 27 20C27 28.2843 33.7157 35 42 35Z" fill="url(#paint0_linear_2_5455)"/>
<path d="M47.9099 12.2236H36.0901C35.0419 12.2236 34.1892 13.0763 34.1892 14.1245V23.9744H39.5808C39.7183 23.9744 39.8501 24.029 39.9473 24.1263L40.4867 24.6656H43.5134L44.0527 24.1263C44.1499 24.029 44.2818 23.9744 44.4193 23.9744H49.8108V14.1245C49.8108 13.0763 48.9581 12.2236 47.9099 12.2236ZM42.1728 20.8639C42.1728 21.885 40.6949 22.4192 39.2351 22.4192C37.7752 22.4192 36.2974 21.885 36.2974 20.8639V15.3341C36.2974 14.3131 37.7752 13.7789 39.2351 13.7789C40.6949 13.7789 42.1728 14.3131 42.1728 15.3341V20.8639ZM47.1842 21.7279H45.4562C45.1699 21.7279 44.9377 21.4959 44.9377 21.2095C44.9377 20.9232 45.1698 20.6911 45.4562 20.6911H47.1842C47.4705 20.6911 47.7026 20.9232 47.7026 21.2095C47.7026 21.4959 47.4705 21.7279 47.1842 21.7279ZM47.1842 19.6543H43.7281C43.4418 19.6543 43.2097 19.4222 43.2097 19.1359C43.2097 18.8495 43.4418 18.6174 43.7281 18.6174H47.1842C47.4705 18.6174 47.7026 18.8495 47.7026 19.1359C47.7026 19.4222 47.4705 19.6543 47.1842 19.6543ZM47.1842 17.5806H43.7281C43.4418 17.5806 43.2097 17.3485 43.2097 17.0622C43.2097 16.7758 43.4418 16.5437 43.7281 16.5437H47.1842C47.4705 16.5437 47.7026 16.7758 47.7026 17.0622C47.7026 17.3485 47.4705 17.5806 47.1842 17.5806ZM47.1842 15.5069H43.7281C43.4418 15.5069 43.2097 15.2748 43.2097 14.9885C43.2097 14.7021 43.4418 14.4701 43.7281 14.4701H47.1842C47.4705 14.4701 47.7026 14.7021 47.7026 14.9885C47.7026 15.2748 47.4705 15.5069 47.1842 15.5069ZM37.3412 15.3341C37.3764 15.2835 37.5089 15.1555 37.8369 15.0344C38.2191 14.8934 38.7156 14.8157 39.2351 14.8157C39.7545 14.8157 40.251 14.8934 40.6333 15.0344C40.9613 15.1554 41.0938 15.2835 41.1289 15.3341C41.0938 15.3848 40.9613 15.5128 40.6333 15.6338C40.2511 15.7749 39.7545 15.8526 39.2351 15.8526C38.7156 15.8526 38.2191 15.7749 37.8369 15.6338C37.509 15.5129 37.3764 15.3848 37.3412 15.3341ZM39.2351 16.8894C39.9152 16.8894 40.5993 16.7734 41.1359 16.5462V20.8526C41.1151 20.8925 40.9894 21.0322 40.6332 21.1636C40.251 21.3047 39.7545 21.3824 39.235 21.3824C38.7156 21.3824 38.2191 21.3047 37.8368 21.1636C37.4806 21.0322 37.3549 20.8925 37.3341 20.8526V16.5462C37.871 16.7734 38.5549 16.8894 39.2351 16.8894ZM44.634 25.0113H50.3293C50.6156 25.0113 50.8477 25.2433 50.8477 25.5297V25.8753C50.8477 26.9251 49.9966 27.7761 48.9469 27.7761H35.0532C34.0034 27.7761 33.1523 26.925 33.1523 25.8753V25.5297C33.1523 25.2434 33.3844 25.0113 33.6708 25.0113H39.366L39.9054 25.5507C40.0027 25.6479 40.1346 25.7025 40.272 25.7025H43.7281C43.8656 25.7025 43.9975 25.6479 44.0947 25.5507L44.634 25.0113Z" fill="url(#paint1_linear_2_5455)"/>
</g>
<defs>
<filter id="filter0_dddd_2_5455" x="0" y="0" width="84" height="129" filterUnits="userSpaceOnUse" color-interpolation-filters="sRGB">
<feFlood flood-opacity="0" result="BackgroundImageFix"/>
<feColorMatrix in="SourceAlpha" type="matrix" values="0 0 0 0 0 0 0 0 0 0 0 0 0 0 0 0 0 0 127 0" result="hardAlpha"/>
<feOffset dy="4"/>
<feGaussianBlur stdDeviation="4.5"/>
<feColorMatrix type="matrix" values="0 0 0 0 0 0 0 0 0 0 0 0 0 0 0 0 0 0 0.1 0"/>
<feBlend mode="normal" in2="BackgroundImageFix" result="effect1_dropShadow_2_5455"/>
<feColorMatrix in="SourceAlpha" type="matrix" values="0 0 0 0 0 0 0 0 0 0 0 0 0 0 0 0 0 0 127 0" result="hardAlpha"/>
<feOffset dy="17"/>
<feGaussianBlur stdDeviation="8.5"/>
<feColorMatrix type="matrix" values="0 0 0 0 0 0 0 0 0 0 0 0 0 0 0 0 0 0 0.09 0"/>
<feBlend mode="normal" in2="effect1_dropShadow_2_5455" result="effect2_dropShadow_2_5455"/>
<feColorMatrix in="SourceAlpha" type="matrix" values="0 0 0 0 0 0 0 0 0 0 0 0 0 0 0 0 0 0 127 0" result="hardAlpha"/>
<feOffset dy="37"/>
<feGaussianBlur stdDeviation="11"/>
<feColorMatrix type="matrix" values="0 0 0 0 0 0 0 0 0 0 0 0 0 0 0 0 0 0 0.05 0"/>
<feBlend mode="normal" in2="effect2_dropShadow_2_5455" result="effect3_dropShadow_2_5455"/>
<feColorMatrix in="SourceAlpha" type="matrix" values="0 0 0 0 0 0 0 0 0 0 0 0 0 0 0 0 0 0 127 0" result="hardAlpha"/>
<feOffset dy="67"/>
<feGaussianBlur stdDeviation="13.5"/>
<feColorMatrix type="matrix" values="0 0 0 0 0 0 0 0 0 0 0 0 0 0 0 0 0 0 0.01 0"/>
<feBlend mode="normal" in2="effect3_dropShadow_2_5455" result="effect4_dropShadow_2_5455"/>
<feBlend mode="normal" in="SourceGraphic" in2="effect4_dropShadow_2_5455" result="shape"/>
</filter>
<linearGradient id="paint0_linear_2_5455" x1="42" y1="35" x2="42" y2="5" gradientUnits="userSpaceOnUse">
<stop stop-color="#ADDCFF"/>
<stop offset="0.5028" stop-color="#EAF6FF"/>
<stop offset="1" stop-color="#EAF6FF"/>
</linearGradient>
<linearGradient id="paint1_linear_2_5455" x1="42" y1="27.7762" x2="42" y2="12.2236" gradientUnits="userSpaceOnUse">
<stop stop-color="#388AF5"/>
<stop offset="1" stop-color="#3B85F9"/>
</linearGradient>
<clipPath id="clip0_2_5455">
<rect width="30" height="30" fill="white" transform="translate(27 5)"/>
</clipPath>
</defs>
</svg>
