<svg width="30" height="30" viewBox="0 0 30 30" fill="none" xmlns="http://www.w3.org/2000/svg">
<g style="mix-blend-mode:luminosity" opacity="0.52">
<path fill-rule="evenodd" clip-rule="evenodd" d="M30 15C30 23.2843 23.2843 30 15 30C6.71572 30 0 23.2843 0 15C0 6.71572 6.71572 0 15 0C23.2843 0 30 6.71572 30 15Z" fill="url(#paint0_linear_2_5511)"/>
<path d="M22.2923 8.57162H21.7393V7.7076C21.7393 6.85002 21.0417 6.15234 20.1841 6.15234C19.3265 6.15234 18.6288 6.85002 18.6288 7.7076V8.57162H19.6656V7.7076C19.6656 7.42172 19.8982 7.18916 20.1841 7.18916C20.47 7.18916 20.7025 7.42172 20.7025 7.7076V8.57162H19.6656L19.6657 9.78129C19.6657 10.0672 19.8983 10.2997 20.1841 10.2997C20.4704 10.2997 20.7026 10.5318 20.7026 10.8182C20.7026 11.1045 20.4705 11.3366 20.1841 11.3366C19.3266 11.3366 18.6289 10.6389 18.6289 9.78135L18.6288 8.57162L16.5552 8.57168V7.70766C16.5552 6.85002 15.8575 6.15234 14.9999 6.15234C14.1424 6.15234 13.4447 6.85002 13.4447 7.7076V8.57162H14.4815V7.7076C14.4815 7.42172 14.7141 7.18916 14.9999 7.18916C15.2858 7.18916 15.5184 7.42172 15.5184 7.7076V8.57162H14.4815L14.4816 9.78129C14.4816 10.0672 14.7141 10.2997 15 10.2997C15.2863 10.2997 15.5184 10.5318 15.5184 10.8182C15.5184 11.1045 15.2863 11.3366 15 11.3366C14.1424 11.3366 13.4447 10.6389 13.4447 9.78135L13.4447 8.57162L11.3711 8.57168V7.70766C11.3711 6.85008 10.6734 6.1524 9.8158 6.1524C8.95822 6.1524 8.26055 6.85008 8.26055 7.70766V8.57168H9.29736V7.70766C9.29736 7.42178 9.52992 7.18922 9.8158 7.18922C10.1017 7.18922 10.3342 7.42178 10.3342 7.70766V8.57168H9.29736L9.29742 9.78135C9.29742 10.0672 9.52998 10.2998 9.81586 10.2998C10.1021 10.2998 10.3343 10.5319 10.3343 10.8182C10.3343 11.1046 10.1022 11.3367 9.81586 11.3367C8.95828 11.3367 8.26061 10.639 8.26061 9.78141L8.26055 8.57168L7.7076 8.57174C6.85002 8.57174 6.15234 9.26941 6.15234 10.127V22.2925C6.15229 23.15 6.84996 23.8477 7.70754 23.8477H22.2923C23.1499 23.8477 23.8476 23.15 23.8476 22.2924V10.1269C23.8476 9.2693 23.1499 8.57162 22.2923 8.57162ZM21.0482 15.3802C21.0482 16.8094 19.8854 17.9722 18.4561 17.9722H11.5438C11.3664 17.9722 11.193 17.9542 11.0254 17.9201V21.6012C11.0254 21.8875 10.7933 22.1196 10.507 22.1196C10.2206 22.1196 9.98854 21.8875 9.98854 21.6012V17.4524C9.35936 16.9791 8.95172 16.2264 8.95172 15.3802V13.3065C8.95172 13.0202 9.18381 12.7881 9.47016 12.7881H12.9262C13.7732 12.7881 14.5266 13.1964 14.9999 13.8265C15.4733 13.1964 16.2266 12.7881 17.0736 12.7881H20.5297C20.816 12.7881 21.0482 13.0202 21.0482 13.3065V15.3802ZM15.5184 15.3802C15.5184 15.6664 15.2863 15.8986 14.9999 15.8986C14.7137 15.8986 14.4815 15.6665 14.4815 15.3802C14.4815 14.5226 13.7838 13.8249 12.9262 13.8249H9.98854V15.3802C9.98854 16.2377 10.6862 16.9354 11.5438 16.9354H18.456C19.3136 16.9354 20.0113 16.2377 20.0113 15.3802V13.8249H17.0736C16.2161 13.8249 15.5184 14.5226 15.5184 15.3802ZM12.9262 15.8986H11.5438C11.2575 15.8986 11.0254 15.6665 11.0254 15.3802C11.0254 15.0938 11.2574 14.8617 11.5438 14.8617H12.9262C13.2125 14.8617 13.4447 15.0938 13.4447 15.3802C13.4447 15.6665 13.2126 15.8986 12.9262 15.8986ZM18.9745 15.3802C18.9745 15.6664 18.7424 15.8986 18.456 15.8986H17.0736C16.7873 15.8986 16.5551 15.6665 16.5551 15.3802C16.5551 15.0938 16.7872 14.8617 17.0736 14.8617H18.456C18.7424 14.8617 18.9745 15.0939 18.9745 15.3802Z" fill="url(#paint1_linear_2_5511)"/>
</g>
<defs>
<linearGradient id="paint0_linear_2_5511" x1="15" y1="30" x2="15" y2="0" gradientUnits="userSpaceOnUse">
<stop stop-color="#ADDCFF"/>
<stop offset="0.5028" stop-color="#EAF6FF"/>
<stop offset="1" stop-color="#EAF6FF"/>
</linearGradient>
<linearGradient id="paint1_linear_2_5511" x1="14.9999" y1="23.8477" x2="14.9999" y2="6.15234" gradientUnits="userSpaceOnUse">
<stop stop-color="#00C0FF"/>
<stop offset="1" stop-color="#5558FF"/>
</linearGradient>
</defs>
</svg>
