<svg width="30" height="30" viewBox="0 0 30 30" fill="none" xmlns="http://www.w3.org/2000/svg">
<g style="mix-blend-mode:luminosity" clip-path="url(#clip0_2_5484)">
<path d="M15 30C23.2843 30 30 23.2843 30 15C30 6.71573 23.2843 0 15 0C6.71573 0 0 6.71573 0 15C0 23.2843 6.71573 30 15 30Z" fill="url(#paint0_linear_2_5484)"/>
<path d="M15.0002 8.23412C15.6416 8.23412 16.2271 7.83211 16.4578 7.23439C16.5921 6.88629 16.5907 6.51773 16.4742 6.15234H13.531C13.3864 6.61254 13.4231 7.0783 13.6589 7.47275C13.944 7.94953 14.4452 8.23412 15.0002 8.23412ZM9.79565 12.3977H11.357V14.4796H18.6433V12.3977H20.2046C20.4923 12.3977 20.7251 12.1649 20.7251 11.8773V8.75461C20.7251 7.31982 19.5576 6.15234 18.1228 6.15234H17.544C17.6411 6.64061 17.6112 7.13566 17.4291 7.60852C17.0448 8.6052 16.0685 9.2751 15.0001 9.2751C14.0893 9.2751 13.2329 8.78918 12.7654 8.00648C12.4271 7.44041 12.3375 6.79436 12.4644 6.1524H11.8774C10.4426 6.1524 9.27516 7.31988 9.27516 8.75467V11.8774C9.27522 12.1649 9.50801 12.3977 9.79565 12.3977ZM23.7604 18.8749L21.6786 15.7522C21.5742 15.6563 21.4866 15.5205 21.2456 15.5205H8.75479C8.51543 15.5205 8.42608 15.6564 8.32178 15.7522L6.24 18.8749C6.08039 19.1143 6.14496 19.4371 6.38432 19.5966C6.62784 19.758 6.94922 19.6879 7.10602 19.4522L8.23436 17.7598V22.2862C8.23436 23.1472 8.93473 23.8476 9.79571 23.8476H20.2047C21.0657 23.8476 21.7661 23.1472 21.7661 22.2862V17.7598L22.8944 19.4522C23.0513 19.688 23.3727 19.7579 23.6161 19.5966C23.8555 19.4371 23.92 19.1143 23.7604 18.8749ZM19.6842 21.2454C19.6842 21.5331 19.4514 21.7658 19.1638 21.7658H16.0411C15.7534 21.7658 15.5207 21.533 15.5207 21.2454V19.1636C15.5207 18.8759 15.7535 18.6432 16.0411 18.6432H19.1638C19.4515 18.6432 19.6842 18.876 19.6842 19.1636V21.2454ZM16.5615 20.725H18.6434V19.684H16.5615V20.725Z" fill="url(#paint1_linear_2_5484)"/>
</g>
<defs>
<linearGradient id="paint0_linear_2_5484" x1="15" y1="30" x2="15" y2="0" gradientUnits="userSpaceOnUse">
<stop stop-color="#FFBEF9"/>
<stop offset="1" stop-color="#FFF1FF"/>
</linearGradient>
<linearGradient id="paint1_linear_2_5484" x1="15.0002" y1="23.8477" x2="15.0002" y2="6.15234" gradientUnits="userSpaceOnUse">
<stop stop-color="#FF81FF"/>
<stop offset="1" stop-color="#A93AFF"/>
</linearGradient>
<clipPath id="clip0_2_5484">
<rect width="30" height="30" fill="white"/>
</clipPath>
</defs>
</svg>
