<svg width="30" height="30" viewBox="0 0 30 30" fill="none" xmlns="http://www.w3.org/2000/svg">
<g opacity="0.84" clip-path="url(#clip0_2_5494)">
<path d="M15 30C23.2843 30 30 23.2843 30 15C30 6.71573 23.2843 0 15 0C6.71573 0 0 6.71573 0 15C0 23.2843 6.71573 30 15 30Z" fill="url(#paint0_linear_2_5494)"/>
<path d="M15.3334 6.50391H14.6666C12.7962 6.50391 11.2799 8.02019 11.2799 9.89063V14.2629C11.2799 16.1333 12.7962 17.6496 14.6666 17.6496H15.3334C17.2038 17.6496 18.7201 16.1333 18.7201 14.2629V9.89063C18.7201 8.02019 17.2038 6.50391 15.3334 6.50391Z" fill="url(#paint1_linear_2_5494)"/>
<path d="M17.3291 8.68994H16.398C16.0806 8.68994 15.8232 8.94716 15.8232 9.26445C15.8232 9.58175 16.0806 9.83896 16.398 9.83896H17.3291C17.6466 9.83896 17.9039 9.58175 17.9039 9.26445C17.9039 8.94716 17.6466 8.68994 17.3291 8.68994Z" fill="url(#paint2_linear_2_5494)"/>
<path d="M17.3291 10.5222H16.398C16.0806 10.5222 15.8232 10.7794 15.8232 11.0967C15.8232 11.414 16.0806 11.6712 16.398 11.6712H17.3291C17.6466 11.6712 17.9039 11.414 17.9039 11.0967C17.9039 10.7794 17.6466 10.5222 17.3291 10.5222Z" fill="url(#paint3_linear_2_5494)"/>
<path d="M17.3291 12.3545H16.398C16.0806 12.3545 15.8232 12.6117 15.8232 12.929C15.8232 13.2463 16.0806 13.5035 16.398 13.5035H17.3291C17.6466 13.5035 17.9039 13.2463 17.9039 12.929C17.9039 12.6117 17.6466 12.3545 17.3291 12.3545Z" fill="url(#paint4_linear_2_5494)"/>
<path d="M17.3291 14.1873H16.398C16.0806 14.1873 15.8232 14.4445 15.8232 14.7618C15.8232 15.0791 16.0806 15.3363 16.398 15.3363H17.3291C17.6466 15.3363 17.9039 15.0791 17.9039 14.7618C17.9039 14.4445 17.6466 14.1873 17.3291 14.1873Z" fill="url(#paint5_linear_2_5494)"/>
<path d="M13.602 8.68994H12.6709C12.3534 8.68994 12.0961 8.94716 12.0961 9.26445C12.0961 9.58175 12.3534 9.83896 12.6709 9.83896H13.602C13.9194 9.83896 14.1768 9.58175 14.1768 9.26445C14.1768 8.94716 13.9194 8.68994 13.602 8.68994Z" fill="url(#paint6_linear_2_5494)"/>
<path d="M13.602 10.5222H12.6709C12.3534 10.5222 12.0961 10.7794 12.0961 11.0967C12.0961 11.414 12.3534 11.6712 12.6709 11.6712H13.602C13.9194 11.6712 14.1768 11.414 14.1768 11.0967C14.1768 10.7794 13.9194 10.5222 13.602 10.5222Z" fill="url(#paint7_linear_2_5494)"/>
<path d="M13.602 12.3545H12.6709C12.3534 12.3545 12.0961 12.6117 12.0961 12.929C12.0961 13.2463 12.3534 13.5035 12.6709 13.5035H13.602C13.9194 13.5035 14.1768 13.2463 14.1768 12.929C14.1768 12.6117 13.9194 12.3545 13.602 12.3545Z" fill="url(#paint8_linear_2_5494)"/>
<path d="M13.602 14.1873H12.6709C12.3534 14.1873 12.0961 14.4445 12.0961 14.7618C12.0961 15.0791 12.3534 15.3363 12.6709 15.3363H13.602C13.9194 15.3363 14.1768 15.0791 14.1768 14.7618C14.1768 14.4445 13.9194 14.1873 13.602 14.1873Z" fill="url(#paint9_linear_2_5494)"/>
<path d="M20.7188 14.117H20.0391C19.923 14.1171 19.8109 14.1594 19.7237 14.2361C19.6365 14.3127 19.5801 14.4184 19.565 14.5336C19.4185 15.64 18.8749 16.6556 18.0355 17.3912C17.196 18.1268 16.1179 18.5323 15.0018 18.5323C13.8856 18.5323 12.8075 18.1268 11.968 17.3912C11.1286 16.6556 10.585 15.64 10.4385 14.5336C10.4234 14.4184 10.367 14.3127 10.2798 14.2361C10.1926 14.1594 10.0805 14.1171 9.96445 14.117H9.28125C9.21357 14.1171 9.14668 14.1315 9.08498 14.1593C9.02328 14.1871 8.96818 14.2277 8.92329 14.2783C8.87839 14.329 8.84474 14.3886 8.82453 14.4532C8.80433 14.5177 8.79803 14.5859 8.80606 14.6531C8.96732 16.0175 9.57373 17.2907 10.5314 18.2757C11.4892 19.2607 12.7448 19.9027 14.1041 20.1023V21.7048H12.4635C12.3958 21.7048 12.3289 21.7182 12.2664 21.744C12.2039 21.7699 12.1471 21.8079 12.0993 21.8557C12.0515 21.9035 12.0135 21.9603 11.9876 22.0228C11.9618 22.0853 11.9484 22.1522 11.9484 22.2199V22.9816C11.9484 23.0493 11.9616 23.1163 11.9875 23.1788C12.0133 23.2413 12.0513 23.2981 12.0991 23.346C12.147 23.3938 12.2038 23.4317 12.2663 23.4576C12.3288 23.4834 12.3958 23.4967 12.4635 23.4966H17.54C17.6077 23.4967 17.6747 23.4834 17.7372 23.4576C17.7998 23.4317 17.8566 23.3938 17.9044 23.346C17.9522 23.2981 17.9902 23.2413 18.016 23.1788C18.0419 23.1163 18.0552 23.0493 18.0551 22.9816V22.2199C18.0551 22.1522 18.0418 22.0853 18.0159 22.0228C17.99 21.9603 17.9521 21.9035 17.9042 21.8557C17.8564 21.8079 17.7996 21.7699 17.7371 21.744C17.6747 21.7182 17.6077 21.7048 17.54 21.7048H15.8994V20.1011C17.2587 19.9016 18.5144 19.2596 19.4721 18.2745C20.4298 17.2895 21.0362 16.0163 21.1975 14.6519C21.2053 14.5845 21.1988 14.5162 21.1783 14.4515C21.1578 14.3868 21.1238 14.3272 21.0786 14.2766C21.0333 14.2261 20.9778 14.1857 20.9158 14.1581C20.8538 14.1306 20.7866 14.1166 20.7188 14.117Z" fill="url(#paint10_linear_2_5494)"/>
</g>
<defs>
<linearGradient id="paint0_linear_2_5494" x1="4.39336" y1="4.39336" x2="25.6066" y2="25.6066" gradientUnits="userSpaceOnUse">
<stop stop-color="#F3F3F3"/>
<stop offset="1" stop-color="#DADADA"/>
</linearGradient>
<linearGradient id="paint1_linear_2_5494" x1="11.3455" y1="8.42227" x2="18.6545" y2="15.7312" gradientUnits="userSpaceOnUse">
<stop stop-color="#717171"/>
<stop offset="1" stop-color="#8A8A8A"/>
</linearGradient>
<linearGradient id="paint2_linear_2_5494" x1="16.224" y1="8.6249" x2="17.5025" y2="9.90342" gradientUnits="userSpaceOnUse">
<stop stop-color="#F2F2F2"/>
<stop offset="1" stop-color="#E6E6E6"/>
</linearGradient>
<linearGradient id="paint3_linear_2_5494" x1="16.224" y1="10.4572" x2="17.5025" y2="11.7357" gradientUnits="userSpaceOnUse">
<stop stop-color="#F2F2F2"/>
<stop offset="1" stop-color="#E6E6E6"/>
</linearGradient>
<linearGradient id="paint4_linear_2_5494" x1="16.224" y1="12.2895" x2="17.5025" y2="13.568" gradientUnits="userSpaceOnUse">
<stop stop-color="#F2F2F2"/>
<stop offset="1" stop-color="#E6E6E6"/>
</linearGradient>
<linearGradient id="paint5_linear_2_5494" x1="16.224" y1="14.1222" x2="17.5025" y2="15.4007" gradientUnits="userSpaceOnUse">
<stop stop-color="#F2F2F2"/>
<stop offset="1" stop-color="#E6E6E6"/>
</linearGradient>
<linearGradient id="paint6_linear_2_5494" x1="12.4969" y1="8.6249" x2="13.7754" y2="9.90342" gradientUnits="userSpaceOnUse">
<stop stop-color="#F2F2F2"/>
<stop offset="1" stop-color="#E6E6E6"/>
</linearGradient>
<linearGradient id="paint7_linear_2_5494" x1="12.4969" y1="10.4572" x2="13.7754" y2="11.7357" gradientUnits="userSpaceOnUse">
<stop stop-color="#F2F2F2"/>
<stop offset="1" stop-color="#E6E6E6"/>
</linearGradient>
<linearGradient id="paint8_linear_2_5494" x1="12.4969" y1="12.2895" x2="13.7754" y2="13.568" gradientUnits="userSpaceOnUse">
<stop stop-color="#F2F2F2"/>
<stop offset="1" stop-color="#E6E6E6"/>
</linearGradient>
<linearGradient id="paint9_linear_2_5494" x1="12.4969" y1="14.1222" x2="13.7754" y2="15.4007" gradientUnits="userSpaceOnUse">
<stop stop-color="#F2F2F2"/>
<stop offset="1" stop-color="#E6E6E6"/>
</linearGradient>
<linearGradient id="paint10_linear_2_5494" x1="10.4883" y1="12.7125" x2="19.5117" y2="21.7359" gradientUnits="userSpaceOnUse">
<stop stop-color="#8B8B8B"/>
<stop offset="1" stop-color="#818181"/>
</linearGradient>
<clipPath id="clip0_2_5494">
<rect width="30" height="30" fill="white"/>
</clipPath>
</defs>
</svg>
